<svg viewBox="0 0 256 256" xmlns="http://www.w3.org/2000/svg" xmlns:xlink="http://www.w3.org/1999/xlink">
    <symbol viewBox="0 0 267.5 278" id="baku-logo-vertical">
        <title>baku-logo-vertical</title>
        <g fill="#fff">
            <path d="M174.04 153.76c-4.72-6.25-11.6-.94-18.61-3.6 1.35 1.69 3.4 3.21 4.6 3.93-2.45.31-4.64.78-7.41.26 2.26 3.06 4.19 3.64 6.5 3.87-6.48 3.62-15.15 4.5-24.8 4.5-42.36 0-44.77-43.2-29.49-43.27-7.43-5.66-19.16 1.14-19.16 11.74-10.05-22.71 6.43-43.75 22.51-43.75-5.19-5.19-16.5-4.8-24.5 3.19 0 0 6.74-29.42 43.79-36.83 0 0-14.18-2.9-30.75 7.37-14.88 9.23-27.15 27.77-27.15 50.62 0 38.28 31.33 64.33 64.33 64.33 24.8 0 30.4-19.13 47.94-19.13-2.62-2.33-5.12-3.21-7.8-3.23M117.01 47.63s5.87-8.82 5.87-18.08c0 0 1.65 2.83 3.23 7.06 1.74 4.65 2.76 11.09 2.76 11.09l5.04-25.59s3.69 14.92 5.31 25.53c0 0 3.62-15.25 9.9-21.53 0 0-5.5 16.73 2.74 28.85 5.04 7.41 13.64 7.17 27.04 22.75 15.12 17.57 18.39 44.91 9.71 67.85 6.42-10.57 9.64-22.42 9.64-33.63 0-24.44-14.05-46.47-35.15-57.14-16.75-8.48-6.7-40.6-6.7-40.6-12.75 4.31-17.04 25.83-17.04 25.83 0-22.25-5.46-35.51-5.46-35.51-4.91 11.86-5.21 35.57-5.21 35.57 0-16.3-14.08-23.02-14.08-23.02 10.19 10.17 2.4 30.57 2.4 30.57M133.88 176.12s15.8-22.57 15.8-42.8c0-17.65-17.85-30.28-17.85-64.21-10.77 21.4-8.66 38.93-.44 57.28-5.54-3.9-11.17-11.85-12.56-20.93-7.05 18.69 9.82 40.25 9.82 40.25-4.29 0-14.02-10.78-14.02-15.45-4.68 19.23 19.25 31.99 19.25 45.86M178.95 145.54s10.85-27.94.82-51.19c-7.29-16.91-24.7-30.32-39.42-30.32 15.23 4.62 44.58 29.53 38.6 81.51"
            />
            <path d="M5.11 196.93h14.6c11.31 0 14.87 5.46 14.87 10.52 0 4.6-2.9 7.76-5.13 9.54 2.63 1.25 7.23 4.4 7.23 11.05 0 7.76-6.19 12.76-14.99 12.76H5.11v-43.87zm8.48 18.15h8.88c.2-.07 3.22-1.9 3.22-5.79 0-2.9-1.45-5.26-6.97-5.26h-5.13v11.05zm7.11 18.61c5 0 7.16-2.37 7.16-5.92 0-3.29-2.17-5.85-7.16-5.85h-7.11v11.77h7.11zM56.33 222.18v-1.05c0-2.83-.46-4.93-4.14-4.93-4.8 0-9.47 3.55-9.47 3.55l-1.97-5.79s5.26-3.88 13.74-3.88c7.69 0 10.06 3.16 10.06 9.73v11.58c0 3.48 3.36 3.48 3.36 3.48l-2.37 6.38c-4.93-.13-7.23-2.1-8.35-4.41-.86 1.32-3.55 4.74-9.34 4.74-5.45 0-9-3.36-9-7.83-.01-6.5 6.57-10.12 17.48-11.57m0 9.54v-4.8c-6.51.92-9.14 3.03-9.14 6.18 0 1.84 1.31 2.5 2.9 2.5 2.36 0 4.46-1.78 6.24-3.88"
            />
            <path d="M103.89 210.87h8.22v17.82c0 3.75.53 5.78 3.09 5.78 2.76 0 5.92-2.62 7.56-4.07v-19.53h8.16v20.78c0 3.61 1.32 9.01 1.32 9.01l-7.9.72s-.65-2.89-.92-5.06c-2.04 2.1-6.05 5.26-11.31 5.26-4.73 0-8.22-2.63-8.22-9.01v-21.7zM152.48 236.19s14.41-10.07 14.41-16.25c0-2.57-1.84-4.4-4.67-4.4-3.42 0-6.7 2.44-6.7 2.44l-3.23-5.07s4.8-4.14 11.57-4.14c6.84 0 11.45 4.27 11.45 10.06 0 6.12-5.98 11.44-11.12 15.65h13.88v6.32h-25.58v-4.61zM196.14 208.77c10.19 0 15.46 7.7 15.46 15.65 0 8.22-5.2 17.17-15.91 17.17-10.2 0-15.52-8.02-15.52-16.05-.01-8.16 5.25-16.77 15.97-16.77m-.26 26.37c6.05 0 8.09-4.94 8.09-9.86 0-5.01-2.1-10.07-8.03-10.07-6.05 0-8.09 5.13-8.09 10.13 0 4.86 2.11 9.8 8.03 9.8"
            />
            <path d="M214.26 234.42h7.89V216.2h-7.63v-6.64h15.66v24.86h7.23v6.37h-23.15zM249.37 222.57v-6.7h12.36v-6.31h-20.26v18.21c6.29 0 13.74-.52 13.74 6.71 0 3.95-2.27 6.82-5.85 7.06-3.42.08-6.06-1.15-7.6-2.19l-3.26 5.19c3.06 2.26 6.89 3.32 11.25 3.29 8.94.21 13.89-5.98 13.89-13.82 0-8.94-7.15-11.44-14.27-11.44M92.22 229.72l-4.7-5.79 13.13-13.06H90.26l-9.8 10.33h-1.04v-27.56l-8.23 1.32v45.83h8.23v-13.61h1.04l.05-.03 6 7.8c4.43 5.75 8.73 6.38 13.03 6.64l1.09-5.93c-3.48-.95-5.69-2.78-8.41-5.94"
            />
            <path d="M5 272.46h3.41v-11.33H5.3v-2.68h6.34v14.01h3.26v2.58H5zM18.24 271.76s1.32 1.01 3.2 1.01c1.02 0 1.67-.3 1.67-.97 0-1.74-5.63-1.79-5.63-5.42 0-1.97 1.67-3.76 4.8-3.76 1.72 0 3.56.55 3.56.55l-.45 2.64s-1.57-.62-3.14-.62c-1.12 0-1.67.3-1.67.9 0 1.71 5.57 1.64 5.57 5.47 0 2.3-2.07 3.78-4.78 3.78-2.27 0-4.06-1.02-4.06-1.02l.93-2.56zM32.18 265.41h-4.11v-2.49h11.25v2.49h-4.03v9.63h-3.11zM47.92 258.45h10.47v2.68h-7.27v4.16h5.73v2.66h-5.73v4.41h7.44v2.69H47.92zM61.58 258.45h3.21v10.05c0 3.01 1.62 4.13 3.81 4.13 2.29 0 3.78-1.37 3.78-4.03v-10.15h3.21v10.03c0 4.48-3.16 6.86-7.02 6.86-3.86 0-7-1.78-7-6.51v-10.38zM78.9 258.45h5.52c4.28 0 6.12 2.24 6.12 4.95 0 2.14-1.22 3.73-2.89 4.57l4.68 7.07h-3.79l-4.08-6.28h-2.37v6.28H78.9v-16.59zm5.03 7.67c2.21 0 3.26-1 3.26-2.57 0-1.37-.82-2.42-3.29-2.42h-1.79v4.98h1.82zM102.52 258.15c5.52 0 8.93 3.76 8.93 8.28 0 4.61-3.56 8.91-9.16 8.91-5.47 0-8.85-4.02-8.85-8.56 0-4.33 3.21-8.63 9.08-8.63m-.15 14.48c3.66 0 5.74-2.96 5.74-5.99 0-2.96-1.96-5.77-5.64-5.77s-5.67 2.84-5.67 5.82c0 2.83 1.86 5.94 5.57 5.94"
            />
            <path d="M114.81 258.45h5.79c4.28 0 6.13 2.41 6.13 5.27 0 3.56-2.63 5.71-6.13 5.71h-2.59v5.62h-3.21v-16.6zm5.27 8.28c2.26 0 3.29-1.1 3.29-2.84 0-1.57-.83-2.76-3.29-2.76h-2.07v5.6h2.07zM129.53 258.45h10.48v2.68h-7.26v4.16h5.71v2.66h-5.71v4.41h7.44v2.69h-10.66zM148.21 258.32h3.06l6.25 16.72h-3.26l-1.34-3.73h-6.42l-1.34 3.73h-3.19l6.24-16.72zm-.76 10.33h4.5l-2.24-6.27-2.26 6.27zM159.9 258.45h3.23l8.09 11.69v-11.69h3.13v16.6h-3.25l-8.07-11.62v11.62h-3.13zM192.83 258.15c3.42 0 5.65 1.22 5.65 1.22l-1.21 2.71s-1.94-1.15-4.56-1.15c-3.96 0-6.08 2.71-6.08 5.9 0 3.58 2.72 5.72 6.2 5.72 1.27 0 2.65-.25 2.65-.25v-3.66h-3.34v-2.66h6.46v8.61s-3.56.74-6.05.74c-5.17 0-9.2-3.2-9.2-8.31 0-4.69 3.46-8.87 9.48-8.87"
            />
            <path d="M206.87 258.32h3.06l6.24 16.72h-3.26l-1.34-3.73h-6.42l-1.35 3.73h-3.19l6.26-16.72zm-.78 10.33h4.51l-2.24-6.27-2.27 6.27zM219 258.45h4.61l4.01 11.52 4-11.52h4.53l.6 16.6h-3.11l-.47-13-4.6 13h-2.1l-4.55-12.97-.43 12.97h-3.08zM239.82 258.45h10.47v2.68h-7.27v4.16h5.73v2.66h-5.73v4.41h7.45v2.69h-10.65zM253.62 271.11s1.79 1.49 4.11 1.45c1.39 0 2.61-.63 2.61-1.77 0-2.99-7.39-2.89-7.39-7.89 0-2.54 2.09-4.75 5.72-4.75 2.32 0 4.51.74 4.51.74l-.52 2.89s-1.94-.84-3.93-.84c-1.42 0-2.55.57-2.55 1.64 0 3.01 7.37 2.74 7.37 7.96 0 3.01-2.59 4.8-5.77 4.8-3.02 0-5.07-1.39-5.07-1.39l.91-2.84z"
            />
        </g>
    </symbol>
    <symbol viewBox="0 0 421.39 171.62" id="baku-logo">
        <title>baku-logo</title>
        <path fill="#808080" d="M104.45 149.26c-4.72-6.25-11.6-.94-18.61-3.6 1.35 1.69 3.4 3.21 4.6 3.93-2.45.31-4.64.78-7.41.26 2.26 3.06 4.19 3.64 6.5 3.87-6.48 3.62-15.15 4.5-24.8 4.5-42.36 0-44.77-43.2-29.49-43.27-7.43-5.66-19.16 1.14-19.16 11.74-10.05-22.71 6.44-43.74 22.52-43.74-5.19-5.19-16.5-4.8-24.5 3.19 0 0 6.74-29.42 43.79-36.83 0 0-14.18-2.9-30.75 7.37C12.26 65.91 0 84.44 0 107.3c0 38.28 31.33 64.33 64.33 64.33 24.8 0 30.4-19.13 47.94-19.13-2.64-2.34-5.14-3.22-7.82-3.24M47.42 43.13s5.87-8.82 5.87-18.08c0 0 1.65 2.83 3.23 7.06 1.74 4.65 2.76 11.09 2.76 11.09l5.04-25.59s3.69 14.92 5.31 25.53c0 0 3.62-15.25 9.9-21.53 0 0-5.5 16.73 2.74 28.85 5.04 7.41 13.64 7.17 27.04 22.75 15.12 17.57 18.39 44.91 9.71 67.85 6.42-10.57 9.64-22.42 9.64-33.63 0-24.44-14.05-46.47-35.15-57.14-16.75-8.48-6.7-40.6-6.7-40.6C74.07 14 69.78 35.51 69.78 35.51 69.78 13.26 64.32 0 64.32 0c-4.91 11.86-5.21 35.57-5.21 35.57 0-16.3-14.08-23.02-14.08-23.02 10.18 10.18 2.39 30.58 2.39 30.58M64.29 171.62s15.8-22.57 15.8-42.8c0-17.65-17.85-30.28-17.85-64.21-10.77 21.4-8.66 38.93-.44 57.28-5.54-3.9-11.17-11.85-12.56-20.93-7.05 18.69 9.82 40.25 9.82 40.25-4.29 0-14.02-10.78-14.02-15.45-4.68 19.23 19.25 31.99 19.25 45.86M109.36 141.04s10.85-27.94.82-51.19c-7.29-16.91-24.7-30.32-39.42-30.32 15.24 4.62 44.58 29.53 38.6 81.51"
        />
        <g fill="#808080">
            <path d="M160.34 72.72h14.6c11.31 0 14.87 5.46 14.87 10.52 0 4.6-2.9 7.76-5.13 9.54 2.63 1.25 7.23 4.4 7.23 11.05 0 7.76-6.19 12.76-14.99 12.76h-16.57V72.72zm8.48 18.15h8.88c.2-.07 3.22-1.9 3.22-5.79 0-2.9-1.45-5.26-6.97-5.26h-5.13v11.05zm7.1 18.61c5 0 7.16-2.37 7.16-5.92 0-3.29-2.17-5.85-7.16-5.85h-7.11v11.77h7.11zM211.56 97.97v-1.05c0-2.83-.46-4.93-4.14-4.93-4.8 0-9.47 3.55-9.47 3.55l-1.97-5.79s5.26-3.88 13.74-3.88c7.69 0 10.06 3.16 10.06 9.73v11.58c0 3.48 3.36 3.48 3.36 3.48l-2.37 6.38c-4.93-.13-7.23-2.1-8.35-4.41-.86 1.32-3.55 4.74-9.34 4.74-5.45 0-9-3.36-9-7.83-.01-6.51 6.56-10.12 17.48-11.57m0 9.54v-4.8c-6.51.92-9.14 3.03-9.14 6.18 0 1.84 1.31 2.5 2.9 2.5 2.36 0 4.46-1.78 6.24-3.88"
            />
            <path d="M259.12 86.66h8.22v17.82c0 3.75.52 5.78 3.09 5.78 2.76 0 5.92-2.62 7.56-4.07V86.66h8.16v20.78c0 3.61 1.32 9.01 1.32 9.01l-7.89.72s-.65-2.89-.92-5.06c-2.04 2.1-6.05 5.26-11.31 5.26-4.73 0-8.22-2.63-8.22-9.01v-21.7zM307.71 111.98s14.41-10.07 14.41-16.25c0-2.57-1.84-4.4-4.67-4.4-3.42 0-6.7 2.44-6.7 2.44l-3.23-5.07s4.8-4.14 11.57-4.14c6.85 0 11.45 4.27 11.45 10.06 0 6.12-5.98 11.44-11.12 15.65h13.88v6.32h-25.58v-4.61zM351.37 84.55c10.19 0 15.46 7.7 15.46 15.65 0 8.22-5.2 17.17-15.91 17.17-10.2 0-15.52-8.02-15.52-16.05-.01-8.15 5.24-16.77 15.97-16.77m-.27 26.38c6.05 0 8.09-4.94 8.09-9.86 0-5.01-2.1-10.07-8.03-10.07-6.05 0-8.09 5.13-8.09 10.13.01 4.86 2.12 9.8 8.03 9.8"
            />
            <path d="M369.49 110.21h7.89V91.99h-7.63v-6.64h15.65v24.86h7.24v6.37h-23.15zM404.6 98.36v-6.7h12.36v-6.31H396.7v18.21c6.29 0 13.74-.52 13.74 6.71 0 3.95-2.27 6.82-5.85 7.06-3.42.08-6.06-1.15-7.6-2.19l-3.26 5.19c3.06 2.26 6.89 3.32 11.25 3.29 8.94.21 13.89-5.98 13.89-13.82 0-8.94-7.16-11.44-14.27-11.44M247.45 105.51l-4.7-5.79 13.13-13.06h-10.39l-9.8 10.33h-1.04V69.43l-8.23 1.32v45.83h8.23v-13.61h1.04l.05-.03 6 7.8c4.43 5.75 8.73 6.38 13.03 6.64l1.09-5.93c-3.48-.95-5.69-2.78-8.41-5.94"
            />
            <path d="M160.23 148.24h3.41v-11.32h-3.11v-2.68h6.34v14h3.26v2.59h-9.9zM173.47 147.55s1.32 1.01 3.21 1.01c1.02 0 1.67-.3 1.67-.97 0-1.74-5.63-1.79-5.63-5.42 0-1.97 1.67-3.76 4.8-3.76 1.72 0 3.56.55 3.56.55l-.45 2.64s-1.57-.62-3.13-.62c-1.12 0-1.67.3-1.67.9 0 1.71 5.57 1.64 5.57 5.47 0 2.3-2.07 3.78-4.78 3.78-2.27 0-4.06-1.02-4.06-1.02l.91-2.56zM187.41 141.2h-4.11v-2.49h11.24v2.49h-4.02v9.63h-3.11zM203.14 134.24h10.48v2.68h-7.27v4.16h5.73v2.66h-5.73v4.4h7.44v2.69h-10.65zM216.8 134.24h3.21v10.05c0 3.01 1.62 4.13 3.81 4.13 2.29 0 3.78-1.37 3.78-4.03v-10.15h3.21v10.03c0 4.48-3.16 6.86-7.02 6.86-3.86 0-7-1.78-7-6.51v-10.38zM234.13 134.24h5.52c4.28 0 6.12 2.24 6.12 4.95 0 2.14-1.22 3.73-2.89 4.57l4.68 7.07h-3.79l-4.08-6.28h-2.37v6.28h-3.21v-16.59zm5.02 7.66c2.21 0 3.26-1 3.26-2.57 0-1.37-.82-2.42-3.29-2.42h-1.79v4.98h1.82zM257.75 133.93c5.52 0 8.93 3.76 8.93 8.28 0 4.61-3.56 8.91-9.16 8.91-5.47 0-8.85-4.02-8.85-8.56 0-4.32 3.21-8.63 9.08-8.63m-.15 14.49c3.66 0 5.74-2.96 5.74-5.99 0-2.96-1.96-5.77-5.64-5.77-3.68 0-5.67 2.84-5.67 5.82 0 2.83 1.86 5.94 5.57 5.94"
            />
            <path d="M270.04 134.24h5.79c4.28 0 6.13 2.41 6.13 5.27 0 3.56-2.63 5.71-6.13 5.71h-2.59v5.62h-3.21v-16.6zm5.27 8.28c2.27 0 3.29-1.1 3.29-2.84 0-1.57-.83-2.76-3.29-2.76h-2.07v5.6h2.07zM284.76 134.24h10.47v2.68h-7.25v4.16h5.71v2.66h-5.71v4.4h7.44v2.69h-10.66zM303.44 134.11h3.06l6.25 16.72h-3.26l-1.34-3.73h-6.42l-1.34 3.73h-3.19l6.24-16.72zm-.77 10.33h4.5l-2.24-6.27-2.26 6.27zM315.12 134.24h3.24l8.09 11.69v-11.69h3.13v16.59h-3.25l-8.07-11.62v11.62h-3.14zM348.06 133.94c3.42 0 5.65 1.22 5.65 1.22l-1.21 2.71s-1.94-1.15-4.56-1.15c-3.96 0-6.08 2.71-6.08 5.9 0 3.58 2.72 5.72 6.2 5.72 1.27 0 2.65-.25 2.65-.25v-3.66h-3.34v-2.66h6.46v8.61s-3.56.74-6.05.74c-5.17 0-9.2-3.2-9.2-8.31 0-4.69 3.46-8.87 9.48-8.87"
            />
            <path d="M362.1 134.11h3.06l6.24 16.72h-3.26l-1.34-3.73h-6.42l-1.35 3.73h-3.19l6.26-16.72zm-.78 10.33h4.51l-2.24-6.27-2.27 6.27zM374.23 134.24h4.6l4.02 11.52 4-11.52h4.53l.6 16.59h-3.11l-.48-12.99-4.6 12.99h-2.09l-4.55-12.96-.43 12.96h-3.08zM395.05 134.24h10.47v2.68h-7.27v4.16h5.73v2.66h-5.73v4.4h7.45v2.69h-10.65zM408.85 146.9s1.79 1.49 4.11 1.45c1.39 0 2.61-.63 2.61-1.77 0-2.99-7.39-2.89-7.39-7.89 0-2.54 2.09-4.75 5.72-4.75 2.32 0 4.51.74 4.51.74l-.52 2.89s-1.94-.84-3.93-.84c-1.42 0-2.55.57-2.55 1.64 0 3.01 7.37 2.74 7.37 7.96 0 3.01-2.59 4.8-5.77 4.8-3.02 0-5.07-1.39-5.07-1.39l.91-2.84z"
            />
        </g>
    </symbol>
    <symbol viewBox="0 0 256 256" id="icon-star">
        <title>icon-star</title>
        <path fill="#FFB600" d="M68.4 150.6l-60-60.4 89-.1L128.1 0l29.8 90.5 89.7-.2-59.3 59.8L217.7 256l-89.6-45.6-90 45.6 30.3-105.4z" />
    </symbol>
    <symbol viewBox="-169 292.9 256 256" id="icon-back">
        <title>icon-back</title>
        <path d="M6.5 548.9l-122.2-128 122.2-128 27.2 14.2-108.6 113.8L33.7 534.7 6.5 548.9z" />
    </symbol>
    <symbol viewBox="0 0 256 256" id="icon-camera">
        <title>icon-camera</title>
        <g>
            <path d="M239.2 56.4h-61.5L167.2 23c-.5-1.6-2-2.7-3.7-2.7l-54.9-.1c-1.6 0-3.1 1-3.6 2.6L93 56.4H72.2v-7.5c0-4.3-3.5-7.9-7.9-7.9H35.9c-4.3 0-7.9 3.5-7.9 7.9v7.5H16.8C7.5 56.4 0 63.9 0 73.2V219c0 9.3 7.5 16.8 16.8 16.8h222.4c9.3 0 16.8-7.5 16.8-16.8V73.2c0-9.3-7.5-16.8-16.8-16.8zM111.4 27.9l49.3.1 8.8 27.9-34 .5h-34.2l10.1-28.5zm-76.5 21c0-.6.4-1 1-1h28.4c.6 0 1 .4 1 1v7.5H34.9v-7.5zM245.7 219c0 3.6-2.9 6.5-6.5 6.5H16.8c-3.6 0-6.5-2.9-6.5-6.5V73.2c0-3.6 2.9-6.5 6.5-6.5h222.4c3.6 0 6.5 2.9 6.5 6.5V219zM130.9 84.7c-34.6 0-62.7 28.1-62.7 62.7s28.1 62.7 62.7 62.7 62.7-28.1 62.7-62.7c-.1-34.6-28.2-62.7-62.7-62.7zm0 115.1c-28.9 0-52.4-23.5-52.4-52.4S102 95 130.9 95s52.4 23.5 52.4 52.4c-.1 28.9-23.6 52.4-52.4 52.4z"
            />
        </g>
    </symbol>
    <symbol viewBox="0 0 256 256" id="icon-close">
        <title>icon-close</title>
        <path d="M248.3 13.2L233.8 0 128 113.7 22.2 0 7.7 13.2 114.6 128 7.7 242.8 22.2 256 128 142.3 233.8 256l14.5-13.2L141.4 128z" />
    </symbol>
    <symbol viewBox="0 0 256 256" id="icon-contribute">
        <title>icon-contribute</title>
        <g>
            <path d="M123.3 105.2c-26.9 0-48.7 21.3-48.7 47.7 0 26.3 21.8 47.7 48.7 47.7s48.7-21.3 48.7-47.7c.1-26.4-21.8-47.7-48.7-47.7zM203.2 86.5h25.9v23.8h-25.9zM1 62.7v173.1h254V62.7H1zm122.3 137.9c-26.9 0-48.7-21.3-48.7-47.7 0-26.3 21.8-47.7 48.7-47.7s48.7 21.3 48.7 47.7c.1 26.3-21.8 47.7-48.7 47.7zm105.8-90.2h-25.9V86.5h25.9v23.9zM111.9 59.6h32.2v-2.1h34.7V20.2H77.2v37.3h34.7z"
            />
        </g>
    </symbol>
    <symbol viewBox="0 0 256 256" id="icon-contributions">
        <title>icon-contributions</title>
        <path d="M256 195.3c0-9.8-15-17.1-27.6-21.5-16.6-5.9-17.5-9.8-17.5-15.6 0-.4 0-.6 0-.6.1-.2.5-.6.8-1 2.2-2.5 4.5-5.5 6-12.1 4-2.2 5.9-6 6.5-12.7v-.5c0-3-.8-5.4-1.9-7.3.4-2.5 1-6.1 1.2-9.2.4-4.9-1.1-12.9-7-19.3-4-4.4-11.7-9.6-25.2-9.6s-21.2 5.2-25.2 9.6c-5.8 6.3-7.4 14.4-7 19.4.3 3.1.8 6.6 1.2 9-1.2 1.8-2 4.3-2 7.3v.5c.6 6.7 2.4 10.5 6.5 12.8 1.4 6.5 3.8 9.6 6 12.1.3.3.7.8.8.9 0 0 0 .2 0 .6 0 6-.8 9.7-17.5 15.6-.6.2-1.5.5-2.6.8-1.4.4-3.1.9-4.9 1.5-7.4-5.6-18-10.3-27.5-13.7-23.1-8.3-25.6-13.9-25.6-23.9 0-1.7.2-1.9 1.7-3.7 2.4-2.7 6-6.7 8-16.8 4.6-2.3 7.9-5.9 8.6-16.4v-.4c0-4.2-1.2-7.4-2.8-9.7.6-3.3 1.4-8.6 1.9-13.2.6-6.2-1.3-16.4-8.7-24.6-5.3-5.9-15.4-12.8-33.5-12.8-17.9 0-27.9 6.8-33.2 12.5-7.5 8.2-9.6 18.5-9.1 24.9.5 4.5 1.3 9.8 1.9 13.2-1.6 2.2-2.8 5.4-2.8 9.7v.4c.7 10.5 4 14.1 8.6 16.4 2 10.1 5.6 14.1 8 16.8 1.6 1.8 1.7 1.9 1.7 3.7 0 10.3-3.6 15.9-25.5 23.9-.7.2-1.6.5-2.8.8-3.4 1-8.1 2.4-12.3 4.2L0 168.9v46.2h156.3v-.1H256v-19.7zM12 177c2.6-.9 5.2-1.7 7.3-2.3 1.3-.4 2.4-.7 3.3-1 21.8-7.9 33.5-15.8 33.5-35.2 0-6.3-2.7-9.3-4.8-11.7-1.9-2.1-3.9-4.3-5.2-11.4-1.1-5.6-4.7-7.3-6.4-8.2-.3-.1-.6-.3-.7-.3 0 0-.9-1.1-1.3-5.9 0-1.2.2-1.9.4-2.2l3.6-1.6-.7-4.7c0-.1-1.6-8.9-2.3-15.3-.2-2.9.7-10 5.9-15.7 5.3-5.7 13.5-8.6 24.3-8.6 11 0 19.3 3 24.6 8.9 5.2 5.7 6 12.5 5.7 15.3-.7 6.5-2.3 15.3-2.3 15.4l-.8 4.6 3.6 1.6c.1.3.4 1 .4 2.2-.4 4.8-1.2 5.9-1.2 5.9-.1.1-.4.2-.7.4-1.7.8-5.4 2.6-6.4 8.2-1.4 7.1-3.3 9.3-5.2 11.4-2.1 2.4-4.8 5.4-4.8 11.7 0 19.5 11.8 27.4 33.6 35.2 12.9 4.6 20.4 8.9 24.5 12v17.4H12V177zm232 25.9h-87.7v-13.1c-.1-1.3-.4-2.6-.9-3.8 1.3-.4 2.4-.7 3.1-.9 16.1-5.7 25.5-12 25.5-26.9 0-5.2-2.4-7.8-3.9-9.5-1.3-1.4-2.5-2.8-3.4-7.5-.9-4.7-4-6.3-5.5-7-.1-.4-.4-1.4-.5-3.1 0-.1 0-.2 0-.3l3-1.4-.8-4.5c0-.1-1.1-6.4-1.6-11.1-.2-1.9.4-6.4 3.8-10.1 3.5-3.8 9-5.7 16.3-5.7 7.3 0 12.8 1.9 16.3 5.7 3.6 3.9 4 8.6 3.9 10.2-.3 4.6-1.5 10.8-1.5 10.8l-.9 4.6 3.1 1.4c0 .1 0 .2 0 .3-.2 1.7-.4 2.6-.5 3-1.5.7-4.6 2.3-5.5 7-1 4.7-2.2 6.1-3.5 7.5-1.6 1.8-3.9 4.4-3.9 9.5 0 15 9.3 21.2 25.5 27 13.7 4.8 18.7 9.2 19.6 10.7v7.2z"
        />
    </symbol>
    <symbol viewBox="0 0 256 256" id="icon-contributors">
        <title>icon-contributors</title>
        <path d="M256 195.3c0-9.8-15-17.1-27.6-21.5-16.6-5.9-17.5-9.8-17.5-15.6 0-.4 0-.6 0-.6.1-.2.5-.6.8-1 2.2-2.5 4.5-5.5 6-12.1 4-2.2 5.9-6 6.5-12.7v-.5c0-3-.8-5.4-1.9-7.3.4-2.5 1-6.1 1.2-9.2.4-4.9-1.1-12.9-7-19.3-4-4.4-11.7-9.6-25.2-9.6s-21.2 5.2-25.2 9.6c-5.8 6.3-7.4 14.4-7 19.4.3 3.1.8 6.6 1.2 9-1.2 1.8-2 4.3-2 7.3v.5c.6 6.7 2.4 10.5 6.5 12.8 1.4 6.5 3.8 9.6 6 12.1.3.3.7.8.8.9 0 0 0 .2 0 .6 0 6-.8 9.7-17.5 15.6-.6.2-1.5.5-2.6.8-1.4.4-3.1.9-4.9 1.5-7.4-5.6-18-10.3-27.5-13.7-23.1-8.3-25.6-13.9-25.6-23.9 0-1.7.2-1.9 1.7-3.7 2.4-2.7 6-6.7 8-16.8 4.6-2.3 7.9-5.9 8.6-16.4v-.4c0-4.2-1.2-7.4-2.8-9.7.6-3.3 1.4-8.6 1.9-13.2.6-6.2-1.3-16.4-8.7-24.6-5.3-5.9-15.4-12.8-33.5-12.8-17.9 0-27.9 6.8-33.2 12.5-7.5 8.2-9.6 18.5-9.1 24.9.5 4.5 1.3 9.8 1.9 13.2-1.6 2.2-2.8 5.4-2.8 9.7v.4c.7 10.5 4 14.1 8.6 16.4 2 10.1 5.6 14.1 8 16.8 1.6 1.8 1.7 1.9 1.7 3.7 0 10.3-3.6 15.9-25.5 23.9-.7.2-1.6.5-2.8.8-3.4 1-8.1 2.4-12.3 4.2L0 168.9v46.2h156.3v-.1H256v-19.7zM12 177c2.6-.9 5.2-1.7 7.3-2.3 1.3-.4 2.4-.7 3.3-1 21.8-7.9 33.5-15.8 33.5-35.2 0-6.3-2.7-9.3-4.8-11.7-1.9-2.1-3.9-4.3-5.2-11.4-1.1-5.6-4.7-7.3-6.4-8.2-.3-.1-.6-.3-.7-.3 0 0-.9-1.1-1.3-5.9 0-1.2.2-1.9.4-2.2l3.6-1.6-.7-4.7c0-.1-1.6-8.9-2.3-15.3-.2-2.9.7-10 5.9-15.7 5.3-5.7 13.5-8.6 24.3-8.6 11 0 19.3 3 24.6 8.9 5.2 5.7 6 12.5 5.7 15.3-.7 6.5-2.3 15.3-2.3 15.4l-.8 4.6 3.6 1.6c.1.3.4 1 .4 2.2-.4 4.8-1.2 5.9-1.2 5.9-.1.1-.4.2-.7.4-1.7.8-5.4 2.6-6.4 8.2-1.4 7.1-3.3 9.3-5.2 11.4-2.1 2.4-4.8 5.4-4.8 11.7 0 19.5 11.8 27.4 33.6 35.2 12.9 4.6 20.4 8.9 24.5 12v17.4H12V177zm232 25.9h-87.7v-13.1c-.1-1.3-.4-2.6-.9-3.8 1.3-.4 2.4-.7 3.1-.9 16.1-5.7 25.5-12 25.5-26.9 0-5.2-2.4-7.8-3.9-9.5-1.3-1.4-2.5-2.8-3.4-7.5-.9-4.7-4-6.3-5.5-7-.1-.4-.4-1.4-.5-3.1 0-.1 0-.2 0-.3l3-1.4-.8-4.5c0-.1-1.1-6.4-1.6-11.1-.2-1.9.4-6.4 3.8-10.1 3.5-3.8 9-5.7 16.3-5.7 7.3 0 12.8 1.9 16.3 5.7 3.6 3.9 4 8.6 3.9 10.2-.3 4.6-1.5 10.8-1.5 10.8l-.9 4.6 3.1 1.4c0 .1 0 .2 0 .3-.2 1.7-.4 2.6-.5 3-1.5.7-4.6 2.3-5.5 7-1 4.7-2.2 6.1-3.5 7.5-1.6 1.8-3.9 4.4-3.9 9.5 0 15 9.3 21.2 25.5 27 13.7 4.8 18.7 9.2 19.6 10.7v7.2z"
        />
    </symbol>
    <symbol viewBox="0 0 256 256" id="icon-down">
        <title>icon-down</title>
        <path d="M0 102l128 79.2L256 102l-14.2-27.2L128 140.4 14.2 74.8 0 102z" />
    </symbol>
    <symbol viewBox="0 0 256 256" id="icon-facebook">
        <title>icon-facebook</title>
        <path d="M187.6 128H141v125H87.2V128H61.3V87.1h25.9V60.5C87.2 24.4 102.8 3 145.4 3h49v44.2h-40.1c-11.9 0-13.4 6.2-13.4 17.7L141 87h53.7l-7.1 41z" />
    </symbol>
    <symbol viewBox="0 0 256 256" id="icon-forward">
        <title>icon-forward</title>
        <path d="M80.5 256l122.2-128L80.5 0 53.3 14.2 161.9 128 53.3 241.8 80.5 256z" />
    </symbol>
    <symbol viewBox="0 0 256 256" id="icon-image">
        <title>icon-image</title>
        <path d="M219.2 85.8L193 14.4c-1.9-5.3-7.6-8.1-12.7-6.2L6.3 71C1.2 72.8-1.3 78.6.6 83.9l27.6 75.3v-40.4c0-18.2 14.7-33 32.8-33h46l54.9-38.1 31.7 38.1h25.6zm27 22.9H61c-5.4 0-9.7 4.6-9.7 10.2v119.4c0 5.6 4.4 10.2 9.7 10.2h185.2c5.4 0 9.8-4.6 9.8-10.2V118.8c0-5.6-4.4-10.1-9.8-10.1zM232.1 223H78.6v-21.8l23.6-54.4 35.4 43.6 33.2-33.7 42.7-15.3 18.5 40.8V223z"
        />
    </symbol>
    <symbol viewBox="0 0 256 256" id="icon-instagram">
        <title>icon-instagram</title>
        <path d="M225.5 3h-195C15.3 3 3 15.3 3 30.5v195C3 240.7 15.3 253 30.5 253h195c15.2 0 27.5-12.3 27.5-27.5V30.4C253 15.3 240.7 3 225.5 3zm-97.7 76.9c26.4 0 47.9 21.4 47.9 47.8s-21.4 47.8-47.9 47.8S80 154.2 80 127.8s21.4-47.9 47.8-47.9zm95.9 133.8c0 5.5-4.5 10-10 10H42.1c-5.5 0-10-4.5-10-10V109h21.7c-1.5 6-2.3 12.3-2.3 18.8 0 42.3 34.4 76.7 76.7 76.7s76.7-34.3 76.7-76.7c0-6.5-.8-12.8-2.3-18.8h21.1v104.7zm.7-144.1c0 5.5-4.5 10-10 10H186c-5.5 0-10-4.5-10-10V41.2c0-5.5 4.5-10 10-10h28.4c5.5 0 10 4.5 10 10v28.4z"
        />
    </symbol>
    <symbol viewBox="0 0 256 256" id="icon-language">
        <title>icon-language</title>
        <path d="M254.5 110.2c-1.8-12.8-6.4-25.5-11.8-37.4-2.7-6.4-6.4-11.8-10-17.3-4.6-6.4-10-13.7-16.4-19.1-5.5-6.4-11.8-10.9-19.1-15.5-6.4-4.6-12.8-8.2-20-10.9-8.2-3.6-16.4-5.5-25.5-7.3-5.3-.6-10.2-1.2-15.2-1.5-.7-.7-1.4-1.2-2.1-1.2-.9 0-2.7 0-3.6 0-.9 0-1.8.9-2.7.9-8.2 0-16.4.9-24.6 2.7-8.5 1.9-16.7 3.7-24.9 7.3-6.4 2.7-12.8 5.5-18.2 9.1-7.3 4.6-14.6 10-21 16.4-5.5 5.5-10 10.9-14.6 17.3s-8.2 12.8-11.8 20C10.3 79.3 7.6 85.6 5.7 92c-1.8 6.4-2.7 12.8-3.6 19.1-.6 4.4-1 8.9-1.2 13.3-.7 1.5-.7 2.3-.7 3.1 0 1.1.3 1.8.6 2.4 0 7.4.7 14.8 2.2 22.2 2.7 11.8 6.4 22.8 11.8 33.7 3.6 8.2 8.2 15.5 13.7 21.9 4.6 5.5 9.1 10.9 14.6 15.5 5.5 5.5 11.8 10 18.2 13.7 4.6 2.7 9.1 5.5 14.6 7.3 9.1 4.6 19.1 7.3 30.1 9.1 4.6.9 10 1.8 14.6 1.8 2.7 0 4.6 0 7.3 0 0 0 .9 0 .9.9 1.8 0 3.6 0 5.5 0 4.6-.9 9.1-.9 13.7-1.8 10.9-1.8 22.8-5.5 32.8-10 4.6-1.8 9.1-4.6 13.7-7.3 6.4-3.6 12.8-8.2 18.2-13.7 5.5-4.6 10-10 14.6-15.5 6.4-7.3 10.9-15.5 15.5-23.7 5.5-10 9.1-21 10.9-32.8 2.6-13.6 2.6-27.3.8-41zM228 96.6c1.8 6.4 3.6 12.8 4.6 19.1.2 1.5.4 3 .6 4.6h-31.6c-.6-7.3-1.4-14.6-2.7-21.9-1.3-8.9-3.1-17.6-5.3-26.2 1.2-.4 2.3-.8 3.5-1.1 4.5-1.8 9.8-3.6 14.3-6.2 4.7 6.1 8.7 12.7 12.1 19.9 1.8 3.6 2.7 7.2 4.5 11.8zm-41 39.1c0 12.1-.7 23.5-2.2 35.5-2.9-.6-5.9-1.2-8.8-1.8-7.3-1.8-15.5-2.7-23.7-2.7-4.4 0-8.6 0-12.8 0v-31c15.9 0 31.7 0 47.5 0zM74.1 172.2c-.5.1-1 .2-1.4.3-.5-4.2-.7-8.2-1.3-12.1-.9-7.3-.9-14.6-.9-21.9.1-.9.1-1.8.2-2.7 17.9 0 35.7 0 53.6 0v31c-8.4.1-16.1 1-24.6 1.8-8.3.9-17.4 1.8-25.6 3.6zm.9-77.5c1.3-6.1 2.7-12.2 4.2-18.3 3.8.6 7.5 1.3 11.3 1.9 10 1.8 21 2.7 31.9 2.7.6 0 1.2 0 1.8 0v39.2H71.7c.7-8.4 1.7-16.9 3.3-25.5zm64.7 25.6V80.2c1.3 0 2.5 0 3.6 0 9.1 0 19.1-.9 28.2-2.7 2.3-.3 4.7-.7 7.1-1.2 1.4 5.6 2.6 11.1 3.8 16.7 1.8 8.8 3.1 18 3.9 27.3h-46.6zm60.2-68.2c-1.3 1.6-5.4 2.6-10.7 4.2-1.3-4.5-2.7-9-4-13.5-.4-.9-.7-1.9-1.1-2.9.1 0 .1.1.2.1 5.7 3.4 10.7 7.4 15.6 12.1zm-34.8-21.7c1.4 3.5 2.7 7 3.7 10.6 2 6.5 4 13 5.8 19.5-1 .2-2 .4-3 .6-8.2.9-16.4 1.8-25.5 2.7-2.1.2-4.2.3-6.4.4V24c3.2.2 6.2.7 9.1 1.5 5.1 1.5 10.9 3 16.3 4.9zm-57.3-4.9c5.2-.7 11-1.5 16.4-1.7v40.5c-3.1-.1-6.1-.3-9.1-.6-8.2-.9-17.3-1.8-25.5-2.7-2-.3-4-.7-6-1 1.6-5.7 3.3-11.5 5.1-17.2.9-4.5 2.7-9.1 4.5-13.6 4.8-1.7 9.7-3.1 14.6-3.7zM69.5 40.1c1-.5 2-1 3-1.5-1.9 6.2-3.8 12.4-5.4 18.5-2.5-.5-5.1-1-7.6-1.5-2.5-.6-4.9-1.2-7.4-1.8.3-.3.7-.6 1-.9 4.6-4.6 10-9.2 16.4-12.8zM30.3 83.8c2.7-4.6 5.5-10 9.1-14.6.4-.8.9-1.5 1.4-2.3.5.2.9.5 1.4.5 2.7.9 5.5 1.8 8.2 2.7 3.6.9 6.4 1.8 10 2.7.9.2 1.7.3 2.6.5-3.7 15.4-6.6 30.9-7.7 46.9H19.6c.2-1.8.4-3.7.7-5.5 1.8-10.8 5.5-20.9 10-30.9zm-9.1 67.4c-1.2-5-1.8-10.3-2.1-15.5 11.8 0 23.5 0 35.2 0-.3 7.9-.1 16 .6 23.7 0 5.3.5 10.8 1.3 16.4-2.7.6-5.2 1.2-7.6 1.8-.9 0-2.7.9-3.6.9-.9 0-1.8.9-2.7.9 0 0-.9.9-1.8.9s-1.8 0-2.7.9c0 .9-.9.9-.9.9-.9.9-.9.9-.9.9-.6.6-1.2 1.2-1.5 1.8-1-1.8-2-3.7-3-5.4-4.8-8.1-8.4-18.1-10.3-28.2zm34.6 60.2c-4.6-4.6-8.2-8.2-11.8-12.8-.7-.7-1.3-1.4-1.9-2.1.6-.1 1.2-.3 1.9-.7.9-.9.9-.9 1.8-.9h.9c0-.9.9-.9.9-.9.9-.9.9-.9 1.8-.9s2.7-.9 3.6-.9c1.6-.5 3.5-1.1 5.5-1.6 1.9 9.6 4.3 19.2 7.1 28.4-3.2-2.3-6.6-4.8-9.8-7.6zm23.1 32.8s.2 0 .7 0c-.5 0-.7 0-.7 0zm41.6-6.4c-3.6 0-8.2 0-11.8-.9-6.6-1.3-13.3-3.1-19.5-5.4-.8-1.7-1.5-3.9-2.3-5.5-1.8-3.6-3.6-7.3-4.6-11.8-2.9-8.7-5.2-17.9-6.9-26.8 1.1-.2 2.2-.4 3.3-.6 5.5-.9 10.9-1.8 16.4-2.7 5.5-.9 11.8-.9 18.2-1.8 3.5 0 7.2-.3 10.9-.5v56.1c-1.3-.1-2.2-.1-3.7-.1zm11 15.5c.3 0 .4 0 .4 0s-.1 0-.4 0zm13.6-19.2c-1.7 0-3.6.2-5.5.4v-53.2c4.3 0 8.5 0 12.8 0 5.5.9 10.9.9 16.4 1.8 4.7.5 9.1 1.3 13.5 2.3-1.6 7.2-3.5 14.5-5.3 21.4-1.8 4.6-2.7 9.1-4.6 13.7 0 1.8-.9 3.6-1.8 5.5-.7.7-.9.9-.9 1.3-7.9 3.3-15.8 5.1-24.6 6.8zm46.9-19.8c2.3-7.8 4.3-15.7 5.9-23.9.1-.3.1-.6.2-.9 3.9 1.3 8 2.7 11.6 4.5.8.4 1.5.8 2.3 1.1-3 3.8-6.3 7.5-9.5 10.7-3.5 2.9-7 5.7-10.5 8.5zm29.7-33.9c-.4.8-.8 1.5-1.2 2.3-5.4-2.5-10.9-5.3-17-6.8-.9-.3-1.8-.5-2.7-.8.3-2.4.6-4.9.9-7.4 0-8.2.9-15.5.9-22.8 0-3 0-6.1-.1-9.1 10.4 0 20.9 0 31.4 0-.2 5.5-.9 11.1-2.1 16.4-1.9 10-5.6 19.1-10.1 28.2z"
        />
    </symbol>
    <symbol viewBox="0 0 256 256" id="icon-link">
        <title>icon-link</title>
        <path fill-rule="evenodd" clip-rule="evenodd" d="M249.7 175.6l-63-61.3c-8-7.8-20.7-7.5-28.3.8l63 61.3c8 7.8 8.4 20.8.7 29.1l-13.8 14.9c-7.6 8.2-20.3 8.6-28.3.8l-63-61.3c-7.6 8.2-7.3 21.3.7 29.1l63 61.3c8 7.8 20.7 7.5 28.3-.8l41.4-44.8c7.7-8.2 7.4-21.3-.7-29.1zM33.8 50.5l13.8-14.9c7.6-8.2 20.3-8.6 28.3-.8l63 61.3c8-8.2 7.3-21.3-.8-29.1l-63-61.3c-8-7.8-20.7-7.5-28.3.8L5.5 51.3c-7.6 8.2-7.3 21.3.7 29.1l63 61.3c8 7.8 20.7 7.5 28.3-.8l-63-61.3c-7.9-7.8-8.3-20.8-.7-29.1zM65 66.7c-3.8 4.1-3.6 10.6.4 14.5l116.3 113.2c4 3.9 10.4 3.7 14.2-.4 3.8-4.1 3.6-10.6-.4-14.5L79.1 66.3c-4-3.9-10.3-3.8-14.1.4z"
        />
    </symbol>
    <symbol viewBox="0 0 256 256" id="icon-liveblog">
        <title>icon-liveblog</title>
        <g>
            <path d="M247.8 22.2c-1.5 0-3 .2-4.7.4-1.7.2-3.4.4-4.9.4-1.1 0-1.9-.1-2.6-.3-.1 0-.1 0-.2 0-5.3-1.3-11.1-2-17.3-2-9.8 0-20 1.6-30.3 4.9-11.1 3.7-60.9 50.6-89.5 78.3-19.4 18.7-40.4 39.5-56.6 56.1-.7.4-1.4 1.1-1.8 1.8-13 13.4-22.5 23.8-25.1 27.8C4.1 206.1.2 227.9.1 228.8c-.1.8-.1 1.6.2 2.3 1.4 4.1 6.3 4.1 8.9 4.1 9.9 0 33.9-3.7 48.4-7.6.1 0 .2-.1.3-.1 11.3-3.8 58.8-40.5 96.7-70.6 38.9-30.9 81.9-66.5 85.4-70.5 5.9-7.1 10.5-30.5 11.4-44 0-.1 0-.2 0-.3 0-1.2 1.7-4.8 2.5-6.5 1.3-2.9 2.2-4.7 2.2-6.6-.1-3-2.2-6.8-8.3-6.8zM22.8 195c.5-.1 1.1-.3 1.5-.7 1.2 0 5.2 1.4 9.7 6.1 2.9 2.9 9 10.5 8.5 20.9-11.7 2.3-24.8 4.2-31.9 4.4 1.7-7 5.5-20.2 12.2-30.7zm32.1 23.5c-.9.2-1.8.5-2.8.7-.4-15.3-11.1-27.1-19.2-31.7-.9-.5-1.9-1-2.8-1.4 4.1-4.5 9.7-10.4 16.3-17.3 4 .1 13.7 1.5 19.7 11.7 6.7 11.5 6.5 23.1 6.1 27.1-8.2 6-14.4 9.9-17.3 10.9zm27.2-17.8c-.4-6.7-2.1-15.8-7.5-25-5.6-9.5-13.4-13.6-19.8-15.3C69 146 86.6 128.5 105 110.8c33.4-32.2 57.1-53.7 71.2-65.4.9.2 1.9.3 3.3.5 12.4 1.5 41.5 5.1 37.8 47.6 0 0 0 .1 0 .1-30 25.1-96.7 79-135.2 107.1zM241.7 42.1c-1 14.5-5.7 34.1-9.1 38.3-.6.7-2.4 2.3-5.3 4.8-.2-17.3-6-30.3-17.2-38.7-7.8-5.9-16.7-8.2-23.4-9.4 1.9-1.4 3.3-2.2 4.1-2.4 9.3-2.9 18.5-4.4 27.3-4.4 5.4 0 10.4.6 14.9 1.7 1.5.4 3.2.6 5.1.6 2.1 0 4.2-.2 6-.4.2 0 .4-.1.7-.1-1.4 3.3-3 6.9-3.1 10zM190.9 68.6l-66.5 56.2c-2 1.7-2.3 4.8-.6 6.8 1 1.1 2.3 1.7 3.7 1.7 1.1 0 2.2-.4 3.1-1.1L197.1 76c2-1.7 2.3-4.8.6-6.8-1.7-2-4.7-2.3-6.8-.6z"
            />
        </g>
    </symbol>
    <symbol viewBox="0 0 256 256" id="icon-login">
        <title>icon-login</title>
        <g>
            <path d="M229.3 1H27.5C16.6 1 8.1 9.4 8.1 19.5l206.9.8c10.1 0 17.7 8.4 17.7 17.7v184.2c0 10.1-8.4 17.7-17.7 17.7H9c1.7 8.4 9.3 15.1 18.5 15.1h201.9c10.9 0 19.3-9.3 19.3-19.3V20.3c0-10.9-9.3-19.3-19.4-19.3zM88 181l14.3 10.1L157 128l-53-58.9S89.7 80.9 89.7 81.7l35.3 40.4H7.3v14.3h117.4L88 181z"
            />
        </g>
    </symbol>
    <symbol viewBox="0 0 256 256" id="icon-mail">
        <title>icon-mail</title>
        <path d="M0 58.5v145.9l80-93L0 58.5zm249.1-13.9c.4-.2-.4.2 0 0H13.8L131.5 128l117.6-83.4zm-114.6 99c-.1.1-.2 0-.3.1-1 .6-2.1 1-3.3 1-.1 0-.1-.1-.2-.1-1.1 0-2.1-.4-3-.9-.1-.1-.3 0-.4-.1l-36.8-24.9-76.7 92.8h228.3l-73.7-91.4-33.9 23.5zm44.4-30.8l77.1 91.7v-146l-77.1 54.3z"
        />
    </symbol>
    <symbol viewBox="0 0 256 256" id="icon-map">
        <title>icon-map</title>
        <path d="M255.7 115.9c-1.1-4.3-5.4-7-9.7-6.1-.4-1.3-1.1-2.4-2-3.4-1.9-3.7-5.4-4.7-7-5-.9-.2-1.9-.2-2.8 0-4-2-8.3-2.7-11.7-3.3-3.6-.6-7.1-1.2-9.6-2.7-4.3-2.6-14.2-15.5-17-22.8-1.2-16.4-18.3-35.7-26.7-42.7-1.7-1.4-3.9-2.1-6.1-1.9-2.2.2-4.2 1.3-5.7 3l-2.4 2.9c-7.9 9.6-14.2 17.2-22.4 23.3-1.8 1.3-3.1 2.5-4.3 3.5-.6.5-1.4 1.2-1.8 1.5-.5-.1-1.7-.5-3.9-1.6-4.4-2.2-4.8-2.9-6.5-6.1-1.1-2-2.5-4.7-5-8-1.9-2.5-4.5-4.5-7.2-6.6-3-2.3-6.4-4.8-7.7-7.5-1.2-2.2-3.2-3.8-5.7-4.4-1.6-.4-3.3-.2-4.8.3-2-1.5-4-1.7-5.1-1.7-.3 0-.5 0-.8 0-.8.1-2.9.3-10.4 3.8-7.4 3.5-10 5.5-11.2 8.9-4.9 13.5 7 20.5 12.8 23.8 2 1.2 5.3 3.1 5.9 4.1.4.8.4 1.9 0 2.8-1.4-.5-3-1.2-4.7-1.9-8.1-3.2-8.5-3.3-8.6-3.4-2.1-.7-4.4-1.1-6.3-1.5-.3-.1-.7-.1-1-.2-.1-.7-.2-1.4-.5-2.1-.8-2.1-2.4-3.8-4.4-4.7-6.2-2.8-12.2-4.2-18-4.2-9.8 0-18.1 4.1-22.8 11.3-3.2 4.9-4.3 10.8-3.3 16.9-2.4 1.1-4.2 3.2-4.8 5.9-.5 2.4-.1 4.7 1 6.8-.2.1-.3.3-.5.5-.1.1-.2.2-.3.4-2.7 3.2-2.7 7.9 0 11 .5.9 1.2 2.5 1.5 3.4.6 2.2 2 4 4 5.1 1.2.7 2.6 1.1 4.1 1.1 0 0 0 0 .1 0 3.3.9 12.9 4.2 17.2 5.8.5.6 1.1 1.1 1.7 1.7.9.8 1.8 1.8 2.7 2.6-1.2 1.2-2.5 2.7-3.2 4.7-1.5 1.6-5.9 4.6-8.4 6.4-2.1 1.5-3.9 2.7-5.4 3.9-1.1-.5-2.2-.7-3.3-.7-2.7 0-5.2 1.3-6.8 3.4-.2.3-.5.8-.8 1.3-2.6.7-4.8 2.6-5.7 5.2-1 2.9-.4 6.1 1.6 8.4 4.2 4.7 7.4 9.7 10.6 14.6.7 1.1 1.4 2.2 2.2 3.3.5 2 1.7 3.7 3.4 4.9 6.4 8.8 14.6 17.2 29.6 21.3 4.1 1.1 7.8 1.9 11.3 2.3 2.4 1.6 5.6 2 8.4.6.1-.1.2-.1.3-.2 15.2-.6 24.7-8.4 34.8-16.7 2.7-2.2 5.4-4.5 8-6.7 8.5-7.2 17.2-14.6 26.3-19.5 1.4 1.5 2.9 3.1 4.3 4.7-1.2 1.1-2.2 2.5-2.8 4.1-2.4 6.1 1.1 11.3 3.7 14.8-4.2 1.9-10.3 6-9.6 14.9.5 6 6 10.4 19 18.6.6.4 1.1.7 1.5.9 1.3 1.1 2.3 2.2 3.3 3.3 3 3.2 6.8 7.1 13.6 7.1 2.7 0 5.6-.6 9.1-2 3.3-1.3 5.5-4.5 5.4-8-.1-3-.3-5.8-.4-8.4-.3-4.3-.5-8.1-.3-11.4 1.6.1 3.2-.2 4.7-1 6.7-3.7 8.7-11.1 10-16.4.8 0 1.5-.2 2.3-.5 2.7-.9 4.7-3.2 5.3-5.9.2-1 .3-1.9.2-2.7.2-1.7-.1-3.5-1-5.1-3.6-6.4-2-11.7 1.3-21.3.9-2.6 1.9-5.3 2.7-8.2.3-1.2.6-2.3.9-3.3 1.3-5.2 1.4-5.7 8.9-8.6 1.2-.5 4.3-1.5 7.2-1.5 3.3 0 4 1.3 4.4 2.3 1.7 3.6 5.6 5.5 9.5 4.6 2.7-.6 4.8-2.6 5.8-5 .7 0 1.3-.1 2-.2 0 0 0 0 .1 0l1-.3c.2-.1.5-.1.8-.2h.1c4.3-1.4 7-5.9 5.8-10.4zM73.4 86.6c-.5-.2-1-.5-1.4-.9.5.3.9.6 1.4.9zm-4.6-7.7c0 1 .1 2.1.5 3-.3-.9-.5-1.9-.5-3zm125 52.1c-.2.9-.5 1.8-.7 2.8-.7 2.4-1.5 4.7-2.3 7.2-2.6 7.4-5.6 16.1-3.6 25.7-1.4 1.4-2.4 3.2-3.2 5.1-.8-.2-1.7-.4-2.7-.4-8.8 0-10.2 9.3-10.8 12.8 0 .2-.1.5-.1.7-.5.7-.9 1.5-1.2 2.3-2.5 7.2-2.3 14.5-1.9 22.2-1-1.1-2.2-2.3-3.7-3.5-.7-.6-1.3-1-3.2-2.1-3.7-2.3-6.4-4.1-8.2-5.4 2.8-1.2 6.3-3 8-7.1.9-2.1 1.5-5.6-.5-10.1-.8-1.7-1.7-3.2-2.7-4.6 2.2-.8 4-2.5 4.9-4.6 1.1-2.6.8-5.5-.8-7.9-3-4.4-6.6-9-10.4-13.2-.2-2.2-1.4-4.4-3.3-5.8l-1.4-1c-1.7-1.3-3.8-1.8-5.8-1.6-1.6-.3-3.2-.1-4.8.5-13.2 5.6-24.5 15.2-35.4 24.5-2.7 2.3-5.2 4.4-7.8 6.5-9.8 7.9-15.9 12.6-25.1 12.9-1.3-.8-2.7-1.2-4.4-1.2-1.2 0-2.3.2-3.4.7-2.2-.4-4.6-.9-7.1-1.6-10-2.7-15.3-7.8-20.9-15.5-.4-.7-.8-1.4-1.4-1.9-1.1-1.6-2.2-3.3-3.3-5-1.3-2.1-2.8-4.2-4.3-6.4 1.4-.5 2.6-1.3 3.5-2.4.8-.8 3.9-3 6-4.4 7.6-5.3 12.3-8.8 14.2-13.2.2-.2.3-.3.5-.5 8.5-8.5 6.2-15.2 2.7-19.4-.4-.4-.5-.6-2.1-2-1.1-1-3.9-3.7-5.3-5.1-1.6-2.6-4.6-3.7-7.5-4.8-1.9-.7-4.5-1.6-7.2-2.5-2.2-.7-4-1.4-5.5-1.9 2-2.8 2.7-6 2.1-9.7 2-2.4 2.5-5.9 1.2-8.8-1.6-3.5-1.7-6.7-.3-8.8 1.5-2.3 4.7-3.6 8.7-3.6 1.9 0 3.9.3 6 .8.2.8.5 1.5.8 2.2 2.9 5.7 9 6.9 13.9 7.8 1.5.3 3 .6 4.1.9 1.7.7 13.6 5.3 15.4 6.1 1.4.6 2.9.9 4.4.8 5.8-.6 10.7-4 13.6-9.3 3.1-5.9 3.1-13 0-18.8-2.8-5.1-7.8-8-12.2-10.6-1.2-.7-2.9-1.7-4.1-2.6.9-.5 1.9-.9 2.9-1.4 1.3.8 2.6 1.3 3.8 1.5.8.6 1.7 1.1 2.7 1.4.9.3 1.9.4 2.8.4 2.1 2 4.3 3.6 6.3 5.1 1.4 1.1 3.4 2.6 3.9 3.2 1.7 2.3 2.7 4.1 3.6 5.9 2.8 5.2 5.2 9 13.7 13.2 4.7 2.3 8.3 3.4 11.7 3.4 6 0 9.6-3.2 12.5-5.7 1-.8 2-1.7 3.1-2.6 8.6-6.3 15.1-13.7 22.1-22.1 7.6 8.3 14.7 19.4 14.7 25.7 0 .8.1 1.6.4 2.4 1.2 3.8 3.6 8.5 6.6 13.2 0 .1 0 .2.1.3.5 2.1 1.8 3.9 3.5 5 4.7 6.4 10.2 12.1 14.4 14.7 1.8 1 3.5 1.8 5.3 2.5-11.3 5.2-13.5 10.9-15.5 18.7zm49.6-23.5l-1.5.4c-.8-1.1-1.7-2.1-2.6-3 2 .5 3.4 1.6 4.1 2.6z"
        />
    </symbol>
    <symbol viewBox="0 0 256 256" id="icon-news">
        <title>icon-news</title>
        <g>
            <path d="M217.2 209.5V0H7.8v225h209.5v-15.5zm-193.9 0v-194h178.4v193.9H23.3zM232.7 85.3v155.2H23.3V256h224.9V85.3zM54.3 124.1h116.4v15.5H54.3zM54.3 162.9h116.4v15.5H54.3zM62.1 38.8H46.5v62h131.8v-62H62.1zm100.8 46.5H62.1v-31h100.8v31z" />
        </g>
    </symbol>
    <symbol viewBox="0 0 256 256" id="icon-privacy">
        <title>icon-privacy</title>
        <g fill-rule="evenodd" clip-rule="evenodd">
            <path d="M18.7 0S60 74 124.1 1.8c17.4 8.3 65.1 53.4 112.8-1.6 1.2 57.2-.2 175.9-.2 175.9L131.4 256l-109-75.6L18.7 0zm12.2 30.4l3.5 143.3 96.5 67.4 93.8-71.9 1.1-144.8s-51.3 32.9-96.9-8.2c-21.5 20.8-61.2 40.1-98 14.2zM40.1 47.2c12.3-1.3 39.1 35.4 86.5-14.8 12 3.1 44 38 89.2 4.4.9 44.1-4 125.8-4 125.8L130.7 224l-84-58.3-6.6-118.5zm9.4 13.6l6.4 99.7 74.4 52 72.3-55.5 3.7-103.7c4.5-.5-30.2 23.9-77-6.3-16.5 17.9-50.1 31.4-79.8 13.8z"
            />
        </g>
    </symbol>
    <symbol viewBox="0 0 256 256" id="icon-search">
        <title>icon-search</title>
        <path d="M247.2 223.3l-52.9-53.1c12.4-17.2 20.2-39.1 20.2-60.9 0-28.1-10.9-54.7-31.1-75S136.7 3 108.8 3 54.3 13.9 34.1 34.3 3 81.1 3 109.3s10.9 54.7 31.1 75 46.7 31.3 74.6 31.3c21.8 0 43.5-6.2 60.7-20.3l52.9 53.1c3.1 3.1 7.8 4.7 12.4 4.7 4.7 0 9.3-1.6 12.4-4.7 7.8-7.9 7.8-18.8.1-25.1zM60.5 159.2c-14-14.1-20.2-31.3-20.2-50s7.8-37.5 20.2-50c14-14.1 31.1-20.3 49.8-20.3s37.3 7.8 49.8 20.3c14 14.1 20.2 31.3 20.2 50s-7.8 37.5-20.2 50c-14 14.1-31.1 20.3-49.8 20.3-18.7 1.6-37.3-6.2-49.8-20.3z"
        />
    </symbol>
    <symbol viewBox="0 0 256 256" id="icon-share-action">
        <title>icon-share-action</title>
        <path fill-rule="evenodd" clip-rule="evenodd" d="M0 72.1h101.2L68.9 93.7H19.7v117.6h167.4v-49l21.3-13.7v82.3H0V72.1zm256 11.8l-77.6 55.5.2-37.9c-49.8-1.8-77.2 31.9-102.5 56.2 0-57.7 49.6-96.9 102.5-97.4l-.2-35.3L256 83.9zm-16.8 14.7"
        />
    </symbol>
    <symbol viewBox="0 0 256 256" id="icon-share">
        <title>icon-share</title>
        <path d="M228.2 199.1c-7.3 0-13.9 3-18.7 7.9L51.3 142.4c2.4-4.2 3.7-9.1 3.7-14.4 0-3.4-.6-6.6-1.6-9.6l151.2-75.8c4.7 8.5 13.5 14.3 23.5 14.3 15 0 27.1-12.7 27.1-28.4S243 .1 228.1.1 201 12.7 201 28.4c0 .5 0 1 0 1.5L46.5 107.4c-4.9-4.8-11.4-7.8-18.7-7.8C12.8 99.6.7 112.3.7 128s12.2 28.4 27.1 28.4c5.1 0 9.8-1.5 13.9-4l160.8 65.7c-1 2.9-1.5 6.1-1.5 9.4 0 15.7 12.2 28.4 27.1 28.4s27.1-12.7 27.1-28.4c.1-15.6-12.1-28.4-27-28.4z"
        />
    </symbol>
    <symbol viewBox="0 0 256 256" id="icon-star">
        <title>icon-star</title>
        <path fill-rule="evenodd" clip-rule="evenodd" d="M68.4 150.59L8.45 90.21l89.01-.05L128.12 0l29.77 90.54 89.67-.19-59.25 59.77L217.69 256l-89.57-45.64L38.08 256 68.4 150.59z" />
    </symbol>
    <symbol viewBox="0 0 256 256" id="icon-tag">
        <title>icon-tag</title>
        <path d="M58.2 1C68.9 1 79.7.9 90.4 1c15.4.2 28.8 5.7 39.8 16.5 34.5 34.3 68.9 68.7 103.3 103.1 4.8 4.8 9.6 9.5 14.3 14.3 9.6 9.8 9.6 22.6 0 32.2-26.7 26.8-53.4 53.5-80.1 80.3-10 10-22.8 10-32.9-.1C95.4 208 56 168.7 16.8 129.2 6.7 119 1.3 106.4 1.2 92 .9 69 1 45.9 1.1 22.9 1.2 10.3 10.5 1.1 23 1c11.7 0 23.4 0 35.2 0zM33.3 54.5c0 11.9 9.4 21.5 21.2 21.5 11.8 0 21.5-9.5 21.6-21.3.1-11.7-9.5-21.5-21.3-21.6-11.8.1-21.4 9.6-21.5 21.4z"
        />
    </symbol>
    <symbol viewBox="0 0 256 256" id="icon-timeline">
        <title>icon-timeline</title>
        <g>
            <path d="M86.11 92.962l8.274-11.895 89.6 97.1-6.852 13.316-91.023-98.52zM42.796 145.325l-8.92-11.895L89.21 74.86l9.697 11.12-56.114 59.345zM183.855 178.295l-12.67-7.5 40.468-72.532 12.67 7.5-40.468 72.532zM15.903 146.748c8.275 0 14.998 6.723 14.998 14.998 0 8.274-6.722 14.998-14.997 14.998-8.274 0-14.998-6.724-14.998-14.998.13-8.275 6.853-14.998 14.998-14.998zM240.097 64.517c8.275 0 14.998 6.723 14.998 14.998 0 8.275-6.723 14.998-14.998 14.998-8.274 0-14.998-6.723-14.998-14.998 0-8.275 6.723-14.998 14.997-14.998z"
            />
        </g>
    </symbol>
    <symbol viewBox="0 0 256 256" id="icon-twitter">
        <title>icon-twitter</title>
        <path d="M253 49.9c-9.2 4.1-19.1 6.8-29.4 8.1 10.6-6.4 18.8-16.5 22.6-28.5-9.9 5.9-20.9 10.2-32.6 12.5-9.3-10-22.7-16.3-37.5-16.3-28.4 0-51.3 23.1-51.3 51.6 0 4.1.4 8 1.3 11.8C83.5 87 45.6 66.4 20.4 35.2c-4.4 7.6-6.9 16.5-6.9 25.9 0 17.9 9.1 33.7 22.9 43-8.4-.3-16.3-2.6-23.3-6.4 0 .3 0 .4 0 .7 0 25 17.7 45.9 41.2 50.6-4.3 1.2-8.8 1.8-13.5 1.8-3.3 0-6.5-.3-9.7-.9 6.5 20.5 25.5 35.5 48 35.9-17.6 13.8-39.7 22.1-63.7 22.1-4.2 0-8.3-.3-12.3-.8 22.7 14.7 49.7 23.2 78.7 23.2 94.4 0 146.1-78.7 146.1-146.9 0-2.3-.1-4.4-.2-6.7 9.8-7.3 18.5-16.4 25.3-26.8z"
        />
    </symbol>
    <symbol viewBox="0 0 256 256" id="icon-up">
        <title>icon-up</title>
        <path d="M256 154L128 74.8 0 154l14.2 27.2L128 115.6l113.8 65.6L256 154z" />
    </symbol>
</svg>