<?xml version="1.0" encoding="utf-8"?>
<!-- Generator: Adobe Illustrator 18.1.1, SVG Export Plug-In . SVG Version: 6.00 Build 0)  -->
<svg version="1.1" id="Layer_1" xmlns="http://www.w3.org/2000/svg" xmlns:xlink="http://www.w3.org/1999/xlink" x="0px" y="0px"
	 viewBox="0 0 267.5 278" enable-background="new 0 0 267.5 278" xml:space="preserve">
<g>
	<path fill="#FFFFFF" d="M174.04,153.76c-4.72-6.25-11.6-0.94-18.61-3.6c1.35,1.69,3.4,3.21,4.6,3.93
		c-2.45,0.31-4.64,0.78-7.41,0.26c2.26,3.06,4.19,3.64,6.5,3.87c-6.48,3.62-15.15,4.5-24.8,4.5c-42.36,0-44.77-43.2-29.49-43.27
		c-7.43-5.66-19.16,1.14-19.16,11.74c-10.05-22.71,6.43-43.75,22.51-43.75c-5.19-5.19-16.5-4.8-24.5,3.19
		c0,0,6.74-29.42,43.79-36.83c0,0-14.18-2.9-30.75,7.37c-14.88,9.23-27.15,27.77-27.15,50.62c0,38.28,31.33,64.33,64.33,64.33
		c24.8,0,30.4-19.13,47.94-19.13C179.22,154.66,176.72,153.78,174.04,153.76"/>
	<path fill="#FFFFFF" d="M117.01,47.63c0,0,5.87-8.82,5.87-18.08c0,0,1.65,2.83,3.23,7.06c1.74,4.65,2.76,11.09,2.76,11.09
		l5.04-25.59c0,0,3.69,14.92,5.31,25.53c0,0,3.62-15.25,9.9-21.53c0,0-5.5,16.73,2.74,28.85c5.04,7.41,13.64,7.17,27.04,22.75
		c15.12,17.57,18.39,44.91,9.71,67.85c6.42-10.57,9.64-22.42,9.64-33.63c0-24.44-14.05-46.47-35.15-57.14
		c-16.75-8.48-6.7-40.6-6.7-40.6c-12.75,4.31-17.04,25.83-17.04,25.83c0-22.25-5.46-35.51-5.46-35.51
		c-4.91,11.86-5.21,35.57-5.21,35.57c0-16.3-14.08-23.02-14.08-23.02C124.8,27.23,117.01,47.63,117.01,47.63"/>
	<path fill="#FFFFFF" d="M133.88,176.12c0,0,15.8-22.57,15.8-42.8c0-17.65-17.85-30.28-17.85-64.21
		c-10.77,21.4-8.66,38.93-0.44,57.28c-5.54-3.9-11.17-11.85-12.56-20.93c-7.05,18.69,9.82,40.25,9.82,40.25
		c-4.29,0-14.02-10.78-14.02-15.45C109.95,149.49,133.88,162.25,133.88,176.12"/>
	<path fill="#FFFFFF" d="M178.95,145.54c0,0,10.85-27.94,0.82-51.19c-7.29-16.91-24.7-30.32-39.42-30.32
		C155.58,68.65,184.93,93.56,178.95,145.54"/>
	<path fill="#FFFFFF" d="M5.11,196.93h14.6c11.31,0,14.87,5.46,14.87,10.52c0,4.6-2.9,7.76-5.13,9.54c2.63,1.25,7.23,4.4,7.23,11.05
		c0,7.76-6.19,12.76-14.99,12.76H5.11V196.93z M13.59,215.08h8.88c0.2-0.07,3.22-1.9,3.22-5.79c0-2.9-1.45-5.26-6.97-5.26h-5.13
		V215.08z M20.7,233.69c5,0,7.16-2.37,7.16-5.92c0-3.29-2.17-5.85-7.16-5.85h-7.11v11.77H20.7z"/>
	<path fill="#FFFFFF" d="M56.33,222.18v-1.05c0-2.83-0.46-4.93-4.14-4.93c-4.8,0-9.47,3.55-9.47,3.55l-1.97-5.79
		c0,0,5.26-3.88,13.74-3.88c7.69,0,10.06,3.16,10.06,9.73v11.58c0,3.48,3.36,3.48,3.36,3.48l-2.37,6.38
		c-4.93-0.13-7.23-2.1-8.35-4.41c-0.86,1.32-3.55,4.74-9.34,4.74c-5.45,0-9-3.36-9-7.83C38.84,227.25,45.42,223.63,56.33,222.18
		 M56.33,231.72v-4.8c-6.51,0.92-9.14,3.03-9.14,6.18c0,1.84,1.31,2.5,2.9,2.5C52.45,235.6,54.55,233.82,56.33,231.72"/>
	<path fill="#FFFFFF" d="M103.89,210.87h8.22v17.82c0,3.75,0.53,5.78,3.09,5.78c2.76,0,5.92-2.62,7.56-4.07v-19.53h8.16v20.78
		c0,3.61,1.32,9.01,1.32,9.01l-7.9,0.72c0,0-0.65-2.89-0.92-5.06c-2.04,2.1-6.05,5.26-11.31,5.26c-4.73,0-8.22-2.63-8.22-9.01
		V210.87z"/>
	<path fill="#FFFFFF" d="M152.48,236.19c0,0,14.41-10.07,14.41-16.25c0-2.57-1.84-4.4-4.67-4.4c-3.42,0-6.7,2.44-6.7,2.44
		l-3.23-5.07c0,0,4.8-4.14,11.57-4.14c6.84,0,11.45,4.27,11.45,10.06c0,6.12-5.98,11.44-11.12,15.65h13.88v6.32h-25.58V236.19z"/>
	<path fill="#FFFFFF" d="M196.14,208.77c10.19,0,15.46,7.7,15.46,15.65c0,8.22-5.2,17.17-15.91,17.17
		c-10.2,0-15.52-8.02-15.52-16.05C180.16,217.38,185.42,208.77,196.14,208.77 M195.88,235.14c6.05,0,8.09-4.94,8.09-9.86
		c0-5.01-2.1-10.07-8.03-10.07c-6.05,0-8.09,5.13-8.09,10.13C187.85,230.2,189.96,235.14,195.88,235.14"/>
	<polygon fill="#FFFFFF" points="214.26,234.42 222.15,234.42 222.15,216.2 214.52,216.2 214.52,209.56 230.18,209.56 
		230.18,234.42 237.41,234.42 237.41,240.79 214.26,240.79 	"/>
	<path fill="#FFFFFF" d="M249.37,222.57v-6.7h12.36v-6.31h-20.26v18.21c6.29,0,13.74-0.52,13.74,6.71c0,3.95-2.27,6.82-5.85,7.06
		c-3.42,0.08-6.06-1.15-7.6-2.19l-3.26,5.19c3.06,2.26,6.89,3.32,11.25,3.29c8.94,0.21,13.89-5.98,13.89-13.82
		C263.64,225.07,256.49,222.57,249.37,222.57"/>
	<path fill="#FFFFFF" d="M92.22,229.72l-4.7-5.79l13.13-13.06H90.26l-9.8,10.33h-1.04v-27.56l-8.23,1.32v45.83h8.23v-13.61h1.04
		l0.05-0.03l6,7.8c4.43,5.75,8.73,6.38,13.03,6.64l1.09-5.93C97.15,234.71,94.94,232.88,92.22,229.72"/>
	<polygon fill="#FFFFFF" points="5,272.46 8.41,272.46 8.41,261.13 5.3,261.13 5.3,258.45 11.64,258.45 11.64,272.46 14.9,272.46 
		14.9,275.04 5,275.04 	"/>
	<path fill="#FFFFFF" d="M18.24,271.76c0,0,1.32,1.01,3.2,1.01c1.02,0,1.67-0.3,1.67-0.97c0-1.74-5.63-1.79-5.63-5.42
		c0-1.97,1.67-3.76,4.8-3.76c1.72,0,3.56,0.55,3.56,0.55l-0.45,2.64c0,0-1.57-0.62-3.14-0.62c-1.12,0-1.67,0.3-1.67,0.9
		c0,1.71,5.57,1.64,5.57,5.47c0,2.3-2.07,3.78-4.78,3.78c-2.27,0-4.06-1.02-4.06-1.02L18.24,271.76z"/>
	<polygon fill="#FFFFFF" points="32.18,265.41 28.07,265.41 28.07,262.92 39.32,262.92 39.32,265.41 35.29,265.41 35.29,275.04 
		32.18,275.04 	"/>
	<polygon fill="#FFFFFF" points="47.92,258.45 58.39,258.45 58.39,261.13 51.12,261.13 51.12,265.29 56.85,265.29 56.85,267.95 
		51.12,267.95 51.12,272.36 58.56,272.36 58.56,275.05 47.92,275.05 	"/>
	<path fill="#FFFFFF" d="M61.58,258.45h3.21v10.05c0,3.01,1.62,4.13,3.81,4.13c2.29,0,3.78-1.37,3.78-4.03v-10.15h3.21v10.03
		c0,4.48-3.16,6.86-7.02,6.86c-3.86,0-7-1.78-7-6.51V258.45z"/>
	<path fill="#FFFFFF" d="M78.9,258.45h5.52c4.28,0,6.12,2.24,6.12,4.95c0,2.14-1.22,3.73-2.89,4.57l4.68,7.07h-3.79l-4.08-6.28
		h-2.37v6.28H78.9V258.45z M83.93,266.12c2.21,0,3.26-1,3.26-2.57c0-1.37-0.82-2.42-3.29-2.42h-1.79v4.98H83.93z"/>
	<path fill="#FFFFFF" d="M102.52,258.15c5.52,0,8.93,3.76,8.93,8.28c0,4.61-3.56,8.91-9.16,8.91c-5.47,0-8.85-4.02-8.85-8.56
		C93.44,262.45,96.65,258.15,102.52,258.15 M102.37,272.63c3.66,0,5.74-2.96,5.74-5.99c0-2.96-1.96-5.77-5.64-5.77
		s-5.67,2.84-5.67,5.82C96.8,269.52,98.66,272.63,102.37,272.63"/>
	<path fill="#FFFFFF" d="M114.81,258.45h5.79c4.28,0,6.13,2.41,6.13,5.27c0,3.56-2.63,5.71-6.13,5.71h-2.59v5.62h-3.21V258.45z
		 M120.08,266.73c2.26,0,3.29-1.1,3.29-2.84c0-1.57-0.83-2.76-3.29-2.76h-2.07v5.6H120.08z"/>
	<polygon fill="#FFFFFF" points="129.53,258.45 140.01,258.45 140.01,261.13 132.75,261.13 132.75,265.29 138.46,265.29 
		138.46,267.95 132.75,267.95 132.75,272.36 140.19,272.36 140.19,275.05 129.53,275.05 	"/>
	<path fill="#FFFFFF" d="M148.21,258.32h3.06l6.25,16.72h-3.26l-1.34-3.73h-6.42l-1.34,3.73h-3.19L148.21,258.32z M147.45,268.65
		h4.5l-2.24-6.27L147.45,268.65z"/>
	<polygon fill="#FFFFFF" points="159.9,258.45 163.13,258.45 171.22,270.14 171.22,258.45 174.35,258.45 174.35,275.05 
		171.1,275.05 163.03,263.43 163.03,275.05 159.9,275.05 	"/>
	<path fill="#FFFFFF" d="M192.83,258.15c3.42,0,5.65,1.22,5.65,1.22l-1.21,2.71c0,0-1.94-1.15-4.56-1.15c-3.96,0-6.08,2.71-6.08,5.9
		c0,3.58,2.72,5.72,6.2,5.72c1.27,0,2.65-0.25,2.65-0.25v-3.66h-3.34v-2.66h6.46v8.61c0,0-3.56,0.74-6.05,0.74
		c-5.17,0-9.2-3.2-9.2-8.31C183.35,262.33,186.81,258.15,192.83,258.15"/>
	<path fill="#FFFFFF" d="M206.87,258.32h3.06l6.24,16.72h-3.26l-1.34-3.73h-6.42l-1.35,3.73h-3.19L206.87,258.32z M206.09,268.65
		h4.51l-2.24-6.27L206.09,268.65z"/>
	<polygon fill="#FFFFFF" points="219,258.45 223.61,258.45 227.62,269.97 231.62,258.45 236.15,258.45 236.75,275.05 233.64,275.05 
		233.17,262.05 228.57,275.05 226.47,275.05 221.92,262.08 221.49,275.05 218.41,275.05 	"/>
	<polygon fill="#FFFFFF" points="239.82,258.45 250.29,258.45 250.29,261.13 243.02,261.13 243.02,265.29 248.75,265.29 
		248.75,267.95 243.02,267.95 243.02,272.36 250.47,272.36 250.47,275.05 239.82,275.05 	"/>
	<path fill="#FFFFFF" d="M253.62,271.11c0,0,1.79,1.49,4.11,1.45c1.39,0,2.61-0.63,2.61-1.77c0-2.99-7.39-2.89-7.39-7.89
		c0-2.54,2.09-4.75,5.72-4.75c2.32,0,4.51,0.74,4.51,0.74l-0.52,2.89c0,0-1.94-0.84-3.93-0.84c-1.42,0-2.55,0.57-2.55,1.64
		c0,3.01,7.37,2.74,7.37,7.96c0,3.01-2.59,4.8-5.77,4.8c-3.02,0-5.07-1.39-5.07-1.39L253.62,271.11z"/>
</g>
</svg>
