<?xml version="1.0" encoding="utf-8"?>
<!-- Generator: Adobe Illustrator 18.1.1, SVG Export Plug-In . SVG Version: 6.00 Build 0)  -->
<svg version="1.1" id="Layer_1" xmlns="http://www.w3.org/2000/svg" xmlns:xlink="http://www.w3.org/1999/xlink" x="0px" y="0px"
	 viewBox="-436 274 200 170" enable-background="new -436 274 200 170" xml:space="preserve">
<g>
	<g>
		<g id="Layer1">
			<path fill="#F7DE20" d="M-402.9,294.8c-0.5-1-21.4,21.6-27.1,38.8c-6.2,18.9,4.1,40,6.9,39.9l7.5-0.9c0.5,0-2.2-44.5,12.8-76.8"
				/>
		</g>
		<g id="Layer2">
			<path fill="#F7DE20" d="M-377.3,372.9l-29.7-0.2c0,0-1.5-29.9-0.3-35.2c1.2-5.4,2.3-14.1,12.9-25.3
				c10.6-11.1,19.8-26.7,16.9-38.2c3.7,5.7,13.5,13.9,16.4,38.6C-358.6,333.4-372.4,366.6-377.3,372.9L-377.3,372.9z"/>
		</g>
		<g id="Layer3">
			<path fill="#F7DE20" d="M-368.7,372.7l24.9,0.1c0,0,7.2-16.4,7.9-33.6c0.7-18.4-9.9-34.6-10.8-33.9
				C-346.9,305.4-344.3,345.7-368.7,372.7z"/>
			<path fill="#F7DE20" d="M-436,380.1h96.5c0,0-17.9,27-24.3,27c-6.5,0-46.3,0-46.3,0S-429.2,402.7-436,380.1z"/>
			<rect x="-418.8" y="414.7" fill="#F7DE20" width="61.8" height="11.9"/>
			<g transform="matrix(1.02975,0,0,1,-2.53101,0)">
				<rect x="-385.8" y="427.6" fill="#F7DE20" width="23.2" height="16.1"/>
			</g>
		</g>
	</g>
</g>
<g>
	<g>
		<g id="Layer1_1_">
			<path fill="#FFFFFF" d="M-302.9,295.1c-0.5-1-21.4,21.6-27.1,38.8c-6.2,18.9,4.1,40,6.9,39.9l7.5-0.9c0.5,0-2.2-44.5,12.8-76.8"
				/>
		</g>
		<g id="Layer2_1_">
			<path fill="#FFFFFF" d="M-277.3,373.2l-29.7-0.2c0,0-1.5-29.9-0.3-35.2c1.2-5.4,2.3-14.1,12.9-25.3
				c10.6-11.1,19.8-26.7,16.9-38.2c3.7,5.7,13.5,13.9,16.4,38.6C-258.6,333.7-272.4,366.9-277.3,373.2L-277.3,373.2z"/>
		</g>
		<g id="Layer3_1_">
			<path fill="#FFFFFF" d="M-268.7,373.1l24.9,0.1c0,0,7.2-16.4,7.9-33.6c0.7-18.4-9.9-34.6-10.8-33.9
				C-246.9,305.7-244.3,346-268.7,373.1z"/>
			<path fill="#FFFFFF" d="M-336,380.4h96.5c0,0-17.9,27-24.3,27c-6.5,0-46.3,0-46.3,0S-329.2,403-336,380.4z"/>
			<rect x="-318.8" y="415" fill="#FFFFFF" width="61.8" height="11.9"/>
			<g transform="matrix(1.02975,0,0,1,-2.53101,0)">
				<rect x="-288.7" y="427.9" fill="#FFFFFF" width="23.2" height="16.1"/>
			</g>
		</g>
	</g>
</g>
</svg>
