<?xml version="1.0" encoding="utf-8"?>
<!-- Generator: Adobe Illustrator 18.1.1, SVG Export Plug-In . SVG Version: 6.00 Build 0)  -->
<svg version="1.1" id="Layer_1" xmlns="http://www.w3.org/2000/svg" xmlns:xlink="http://www.w3.org/1999/xlink" x="0px" y="0px"
	 viewBox="0 0 421.39 171.62" enable-background="new 0 0 421.39 171.62" xml:space="preserve">
<path fill="#FFFFFF" d="M104.45,149.26c-4.72-6.25-11.6-0.94-18.61-3.6c1.35,1.69,3.4,3.21,4.6,3.93c-2.45,0.31-4.64,0.78-7.41,0.26
	c2.26,3.06,4.19,3.64,6.5,3.87c-6.48,3.62-15.15,4.5-24.8,4.5c-42.36,0-44.77-43.2-29.49-43.27c-7.43-5.66-19.16,1.14-19.16,11.74
	C6.03,103.98,22.52,82.95,38.6,82.95c-5.19-5.19-16.5-4.8-24.5,3.19c0,0,6.74-29.42,43.79-36.83c0,0-14.18-2.9-30.75,7.37
	C12.26,65.91,0,84.44,0,107.3c0,38.28,31.33,64.33,64.33,64.33c24.8,0,30.4-19.13,47.94-19.13
	C109.63,150.16,107.13,149.28,104.45,149.26"/>
<path fill="#FFFFFF" d="M47.42,43.13c0,0,5.87-8.82,5.87-18.08c0,0,1.65,2.83,3.23,7.06c1.74,4.65,2.76,11.09,2.76,11.09l5.04-25.59
	c0,0,3.69,14.92,5.31,25.53c0,0,3.62-15.25,9.9-21.53c0,0-5.5,16.73,2.74,28.85c5.04,7.41,13.64,7.17,27.04,22.75
	c15.12,17.57,18.39,44.91,9.71,67.85c6.42-10.57,9.64-22.42,9.64-33.63c0-24.44-14.05-46.47-35.15-57.14
	c-16.75-8.48-6.7-40.6-6.7-40.6C74.07,14,69.78,35.51,69.78,35.51C69.78,13.26,64.32,0,64.32,0c-4.91,11.86-5.21,35.57-5.21,35.57
	c0-16.3-14.08-23.02-14.08-23.02C55.21,22.73,47.42,43.13,47.42,43.13"/>
<path fill="#FFFFFF" d="M64.29,171.62c0,0,15.8-22.57,15.8-42.8c0-17.65-17.85-30.28-17.85-64.21c-10.77,21.4-8.66,38.93-0.44,57.28
	c-5.54-3.9-11.17-11.85-12.56-20.93c-7.05,18.69,9.82,40.25,9.82,40.25c-4.29,0-14.02-10.78-14.02-15.45
	C40.36,144.99,64.29,157.75,64.29,171.62"/>
<path fill="#FFFFFF" d="M109.36,141.04c0,0,10.85-27.94,0.82-51.19c-7.29-16.91-24.7-30.32-39.42-30.32
	C86,64.15,115.34,89.06,109.36,141.04"/>
<g>
	<path fill="#FFFFFF" d="M160.34,72.72h14.6c11.31,0,14.87,5.46,14.87,10.52c0,4.6-2.9,7.76-5.13,9.54
		c2.63,1.25,7.23,4.4,7.23,11.05c0,7.76-6.19,12.76-14.99,12.76h-16.57V72.72z M168.82,90.87h8.88c0.2-0.07,3.22-1.9,3.22-5.79
		c0-2.9-1.45-5.26-6.97-5.26h-5.13V90.87z M175.92,109.48c5,0,7.16-2.37,7.16-5.92c0-3.29-2.17-5.85-7.16-5.85h-7.11v11.77H175.92z"
		/>
	<path fill="#FFFFFF" d="M211.56,97.97v-1.05c0-2.83-0.46-4.93-4.14-4.93c-4.8,0-9.47,3.55-9.47,3.55l-1.97-5.79
		c0,0,5.26-3.88,13.74-3.88c7.69,0,10.06,3.16,10.06,9.73v11.58c0,3.48,3.36,3.48,3.36,3.48l-2.37,6.38
		c-4.93-0.13-7.23-2.1-8.35-4.41c-0.86,1.32-3.55,4.74-9.34,4.74c-5.45,0-9-3.36-9-7.83C194.07,103.03,200.64,99.42,211.56,97.97
		 M211.56,107.51v-4.8c-6.51,0.92-9.14,3.03-9.14,6.18c0,1.84,1.31,2.5,2.9,2.5C207.68,111.39,209.78,109.61,211.56,107.51"/>
	<path fill="#FFFFFF" d="M259.12,86.66h8.22v17.82c0,3.75,0.52,5.78,3.09,5.78c2.76,0,5.92-2.62,7.56-4.07V86.66h8.16v20.78
		c0,3.61,1.32,9.01,1.32,9.01l-7.89,0.72c0,0-0.65-2.89-0.92-5.06c-2.04,2.1-6.05,5.26-11.31,5.26c-4.73,0-8.22-2.63-8.22-9.01
		V86.66z"/>
	<path fill="#FFFFFF" d="M307.71,111.98c0,0,14.41-10.07,14.41-16.25c0-2.57-1.84-4.4-4.67-4.4c-3.42,0-6.7,2.44-6.7,2.44
		l-3.23-5.07c0,0,4.8-4.14,11.57-4.14c6.85,0,11.45,4.27,11.45,10.06c0,6.12-5.98,11.44-11.12,15.65h13.88v6.32h-25.58V111.98z"/>
	<path fill="#FFFFFF" d="M351.37,84.55c10.19,0,15.46,7.7,15.46,15.65c0,8.22-5.2,17.17-15.91,17.17c-10.2,0-15.52-8.02-15.52-16.05
		C335.39,93.17,340.64,84.55,351.37,84.55 M351.1,110.93c6.05,0,8.09-4.94,8.09-9.86c0-5.01-2.1-10.07-8.03-10.07
		c-6.05,0-8.09,5.13-8.09,10.13C343.08,105.99,345.19,110.93,351.1,110.93"/>
	<polygon fill="#FFFFFF" points="369.49,110.21 377.38,110.21 377.38,91.99 369.75,91.99 369.75,85.35 385.4,85.35 385.4,110.21 
		392.64,110.21 392.64,116.58 369.49,116.58 	"/>
	<path fill="#FFFFFF" d="M404.6,98.36v-6.7h12.36v-6.31H396.7v18.21c6.29,0,13.74-0.52,13.74,6.71c0,3.95-2.27,6.82-5.85,7.06
		c-3.42,0.08-6.06-1.15-7.6-2.19l-3.26,5.19c3.06,2.26,6.89,3.32,11.25,3.29c8.94,0.21,13.89-5.98,13.89-13.82
		C418.87,100.86,411.71,98.36,404.6,98.36"/>
	<path fill="#FFFFFF" d="M247.45,105.51l-4.7-5.79l13.13-13.06h-10.39l-9.8,10.33h-1.04V69.43l-8.23,1.32v45.83h8.23v-13.61h1.04
		l0.05-0.03l6,7.8c4.43,5.75,8.73,6.38,13.03,6.64l1.09-5.93C252.38,110.5,250.17,108.67,247.45,105.51"/>
	<polygon fill="#FFFFFF" points="160.23,148.24 163.64,148.24 163.64,136.92 160.53,136.92 160.53,134.24 166.87,134.24 
		166.87,148.24 170.13,148.24 170.13,150.83 160.23,150.83 	"/>
	<path fill="#FFFFFF" d="M173.47,147.55c0,0,1.32,1.01,3.21,1.01c1.02,0,1.67-0.3,1.67-0.97c0-1.74-5.63-1.79-5.63-5.42
		c0-1.97,1.67-3.76,4.8-3.76c1.72,0,3.56,0.55,3.56,0.55l-0.45,2.64c0,0-1.57-0.62-3.13-0.62c-1.12,0-1.67,0.3-1.67,0.9
		c0,1.71,5.57,1.64,5.57,5.47c0,2.3-2.07,3.78-4.78,3.78c-2.27,0-4.06-1.02-4.06-1.02L173.47,147.55z"/>
	<polygon fill="#FFFFFF" points="187.41,141.2 183.3,141.2 183.3,138.71 194.54,138.71 194.54,141.2 190.52,141.2 190.52,150.83 
		187.41,150.83 	"/>
	<polygon fill="#FFFFFF" points="203.14,134.24 213.62,134.24 213.62,136.92 206.35,136.92 206.35,141.08 212.08,141.08 
		212.08,143.74 206.35,143.74 206.35,148.14 213.79,148.14 213.79,150.83 203.14,150.83 	"/>
	<path fill="#FFFFFF" d="M216.8,134.24h3.21v10.05c0,3.01,1.62,4.13,3.81,4.13c2.29,0,3.78-1.37,3.78-4.03v-10.15h3.21v10.03
		c0,4.48-3.16,6.86-7.02,6.86c-3.86,0-7-1.78-7-6.51V134.24z"/>
	<path fill="#FFFFFF" d="M234.13,134.24h5.52c4.28,0,6.12,2.24,6.12,4.95c0,2.14-1.22,3.73-2.89,4.57l4.68,7.07h-3.79l-4.08-6.28
		h-2.37v6.28h-3.21V134.24z M239.15,141.9c2.21,0,3.26-1,3.26-2.57c0-1.37-0.82-2.42-3.29-2.42h-1.79v4.98H239.15z"/>
	<path fill="#FFFFFF" d="M257.75,133.93c5.52,0,8.93,3.76,8.93,8.28c0,4.61-3.56,8.91-9.16,8.91c-5.47,0-8.85-4.02-8.85-8.56
		C248.67,138.24,251.88,133.93,257.75,133.93 M257.6,148.42c3.66,0,5.74-2.96,5.74-5.99c0-2.96-1.96-5.77-5.64-5.77
		c-3.68,0-5.67,2.84-5.67,5.82C252.03,145.31,253.89,148.42,257.6,148.42"/>
	<path fill="#FFFFFF" d="M270.04,134.24h5.79c4.28,0,6.13,2.41,6.13,5.27c0,3.56-2.63,5.71-6.13,5.71h-2.59v5.62h-3.21V134.24z
		 M275.31,142.52c2.27,0,3.29-1.1,3.29-2.84c0-1.57-0.83-2.76-3.29-2.76h-2.07v5.6H275.31z"/>
	<polygon fill="#FFFFFF" points="284.76,134.24 295.23,134.24 295.23,136.92 287.98,136.92 287.98,141.08 293.69,141.08 
		293.69,143.74 287.98,143.74 287.98,148.14 295.42,148.14 295.42,150.83 284.76,150.83 	"/>
	<path fill="#FFFFFF" d="M303.44,134.11h3.06l6.25,16.72h-3.26l-1.34-3.73h-6.42l-1.34,3.73h-3.19L303.44,134.11z M302.67,144.44
		h4.5l-2.24-6.27L302.67,144.44z"/>
	<polygon fill="#FFFFFF" points="315.12,134.24 318.36,134.24 326.45,145.93 326.45,134.24 329.58,134.24 329.58,150.83 
		326.33,150.83 318.26,139.21 318.26,150.83 315.12,150.83 	"/>
	<path fill="#FFFFFF" d="M348.06,133.94c3.42,0,5.65,1.22,5.65,1.22l-1.21,2.71c0,0-1.94-1.15-4.56-1.15c-3.96,0-6.08,2.71-6.08,5.9
		c0,3.58,2.72,5.72,6.2,5.72c1.27,0,2.65-0.25,2.65-0.25v-3.66h-3.34v-2.66h6.46v8.61c0,0-3.56,0.74-6.05,0.74
		c-5.17,0-9.2-3.2-9.2-8.31C338.58,138.12,342.04,133.94,348.06,133.94"/>
	<path fill="#FFFFFF" d="M362.1,134.11h3.06l6.24,16.72h-3.26l-1.34-3.73h-6.42l-1.35,3.73h-3.19L362.1,134.11z M361.32,144.44h4.51
		l-2.24-6.27L361.32,144.44z"/>
	<polygon fill="#FFFFFF" points="374.23,134.24 378.83,134.24 382.85,145.76 386.85,134.24 391.38,134.24 391.98,150.83 
		388.87,150.83 388.39,137.84 383.79,150.83 381.7,150.83 377.15,137.87 376.72,150.83 373.64,150.83 	"/>
	<polygon fill="#FFFFFF" points="395.05,134.24 405.52,134.24 405.52,136.92 398.25,136.92 398.25,141.08 403.98,141.08 
		403.98,143.74 398.25,143.74 398.25,148.14 405.7,148.14 405.7,150.83 395.05,150.83 	"/>
	<path fill="#FFFFFF" d="M408.85,146.9c0,0,1.79,1.49,4.11,1.45c1.39,0,2.61-0.63,2.61-1.77c0-2.99-7.39-2.89-7.39-7.89
		c0-2.54,2.09-4.75,5.72-4.75c2.32,0,4.51,0.74,4.51,0.74l-0.52,2.89c0,0-1.94-0.84-3.93-0.84c-1.42,0-2.55,0.57-2.55,1.64
		c0,3.01,7.37,2.74,7.37,7.96c0,3.01-2.59,4.8-5.77,4.8c-3.02,0-5.07-1.39-5.07-1.39L408.85,146.9z"/>
</g>
</svg>
