<?xml version="1.0" encoding="utf-8"?>
<!-- Generator: Adobe Illustrator 18.1.1, SVG Export Plug-In . SVG Version: 6.00 Build 0)  -->
<svg version="1.1"
	 id="Background__x2B__dark__x2B__created_by_black__x2B__created_by_white__x2B__developed_by_black__x2B__developed_by_white_xA0_Image_1_"
	 xmlns="http://www.w3.org/2000/svg" xmlns:xlink="http://www.w3.org/1999/xlink" x="0px" y="0px" viewBox="0 0 76 16.8"
	 enable-background="new 0 0 76 16.8" xml:space="preserve">
<g>
	<path d="M76,16.8H0V0h76V16.8z M4.4,13.1H7v-2.7h1.3c2.3,0,4-1.2,4-3.4v0c0-2.1-1.5-3.3-3.9-3.3h-4V13.1z M7,8.4V5.9h1.2
		c0.9,0,1.5,0.4,1.5,1.2v0c0,0.7-0.6,1.2-1.5,1.2H7z M18.1,13.3c2.9,0,5.1-2.2,5.1-4.9v0c0-2.7-2.1-4.9-5-4.9
		c-2.9,0-5.1,2.2-5.1,4.9v0C13.1,11.1,15.2,13.3,18.1,13.3z M18.1,10.9c-1.4,0-2.4-1.2-2.4-2.5v0c0-1.4,1-2.5,2.4-2.5
		c1.4,0,2.4,1.2,2.4,2.5v0C20.5,9.8,19.6,10.9,18.1,10.9z M28.1,13.3c2.3,0,3.8-1.1,3.8-3.1v0c0-1.8-1.3-2.5-3.5-2.9
		c-1.3-0.3-1.6-0.5-1.6-0.9v0c0-0.3,0.3-0.6,0.9-0.6c0.8,0,1.8,0.3,2.6,0.9l1.3-1.8c-1-0.8-2.3-1.2-3.9-1.2c-2.3,0-3.6,1.3-3.6,3v0
		c0,1.9,1.5,2.5,3.5,2.9c1.3,0.3,1.6,0.5,1.6,0.9v0c0,0.4-0.4,0.6-1.1,0.6c-1.1,0-2.1-0.4-3-1.1l-1.4,1.7
		C24.9,12.7,26.5,13.3,28.1,13.3z M36.7,13.3c2.3,0,3.8-1.1,3.8-3.1v0c0-1.8-1.3-2.5-3.5-2.9c-1.3-0.3-1.6-0.5-1.6-0.9v0
		c0-0.3,0.3-0.6,0.9-0.6c0.8,0,1.8,0.3,2.6,0.9l1.3-1.8c-1-0.8-2.3-1.2-3.9-1.2c-2.3,0-3.6,1.3-3.6,3v0c0,1.9,1.5,2.5,3.5,2.9
		c1.3,0.3,1.6,0.5,1.6,0.9v0c0,0.4-0.4,0.6-1.1,0.6c-1.1,0-2.1-0.4-3-1.1l-1.4,1.7C33.5,12.7,35.1,13.3,36.7,13.3z M41.9,13.1h2.6
		V3.7h-2.6V13.1z M46.2,13.1H51c2.2,0,3.5-1,3.5-2.6v0c0-1.3-0.7-1.9-1.9-2.3c0.8-0.4,1.4-1,1.4-2.1v0c0-0.6-0.2-1.1-0.6-1.5
		C53,4,52.2,3.7,51,3.7h-4.8V13.1z M48.7,7.5V5.8h1.7c0.8,0,1.2,0.3,1.2,0.8v0c0,0.6-0.4,0.8-1.2,0.8H48.7z M48.7,11V9.3h2
		c0.9,0,1.3,0.3,1.3,0.8v0c0,0.5-0.5,0.9-1.2,0.9H48.7z M55.8,13.1h7.1v-2.3h-4.5V3.7h-2.6V13.1z M64,13.1h7.6v-2.2h-5V9.4h4.5V7.3
		h-4.5V5.9h5V3.7H64V13.1z" fill="#ffffff"/>
</g>
</svg>
