<?xml version="1.0" encoding="utf-8"?>
<!-- Generator: Adobe Illustrator 18.1.1, SVG Export Plug-In . SVG Version: 6.00 Build 0)  -->
<svg version="1.1" id="Layer_1" xmlns="http://www.w3.org/2000/svg" xmlns:xlink="http://www.w3.org/1999/xlink" x="0px" y="0px"
	 viewBox="0 0 910.13 761.39" enable-background="new 0 0 910.13 761.39" xml:space="preserve">
<polygon fill="none" stroke="#000000" stroke-miterlimit="10" points="630.99,761.39 625.14,760.48 607.28,749.12 606.69,747.77 
	594.54,731.58 584.86,719.77 581.45,719.46 570.31,721.49 560.68,715.45 555.16,710.03 552.1,703.57 542.43,688.89 509.06,669.12 
	505.32,651.44 511.32,650.76 519.77,649.21 530.95,643.07 563.84,625.32 562.1,614.21 546.9,602.2 541.92,595.81 539.73,592.74 
	529.29,578 528.32,575.09 540.85,560.83 544.56,558.86 567.15,546.05 556.64,533.89 514.6,484.76 496.69,477.34 472.87,490.73 
	466.06,494 452.11,502.75 445.87,506.37 420.42,523.29 404.28,529.72 392.15,537.68 387.86,543.12 371.71,556.15 369.2,558.32 
	355.03,567.89 347.68,575.91 334.84,593.23 321.22,601.33 313.45,601.98 302.36,603.72 292.97,610.01 285.44,619.89 274.38,634.88 
	266.4,645.36 253.21,655.59 256.1,619.78 254.83,611.47 250.55,602.73 244.99,598.38 240.37,585.64 242.85,583.93 248.6,582.57 
	254.49,581.59 259.18,591.16 260.48,589.23 269.49,582.28 273.07,580.57 269.8,578.26 256.93,568.71 255.98,566.03 244.93,553.42 
	236.09,550.01 230.61,534.79 239.76,528.3 248.66,521.72 256.47,526.42 257.59,525.08 252.64,519.64 252.53,513.49 253.93,504.67 
	247.1,505.71 238.03,499.55 232.65,494.01 205.68,498.22 181.82,489.68 180.98,486.97 179.65,483.33 159.34,459.85 155.34,458.38 
	135.24,448.51 127.54,432.48 127.62,432 122.5,424.69 114.46,422.18 104.42,419.9 95.51,412.56 99.27,406.43 129.3,406.83 
	132.28,409.65 139.45,410.15 149.55,393.54 155.26,388.42 159.41,385.24 154.24,381.61 158.39,380.15 159.19,379.66 159.16,365.4 
	154.86,362.97 151.73,358.5 157.42,355.58 151.33,352.21 133.1,346.76 108.4,336.98 104.39,334.01 79.23,311.06 71.15,305.41 
	71.65,297.09 69.17,286.73 62.28,283.86 60.25,281.46 57.51,271.18 66.82,257.79 77.55,251.51 97.91,237.3 99.21,229.99 
	88.33,221.41 86.67,220.41 78.65,212.18 74.39,209.68 69.73,211.03 66.96,203.29 69.88,198.96 69.15,197.99 62.85,201.4 
	50.53,198.75 46.34,198.34 39.69,196.71 36.37,194.02 25.95,186.94 23.81,186.56 12.69,190.52 11.1,185.11 17.56,177.25 
	24.91,176.72 30.36,170.24 22.77,162.9 14.4,163.14 9.45,155.85 7.95,149.1 0,140.44 10.45,132.11 28.55,115.5 37.35,107.16 
	45.68,98.84 51.38,95.54 57.67,94.2 66.5,97.69 78.64,97.47 97.21,110.71 101.65,113.23 111.16,116.67 120.14,119.14 126.77,124.93 
	119.65,126.82 131.72,144.3 155.54,155.19 181.04,153.4 188.11,150.81 207.19,150.17 215.57,153.68 234.45,166.33 245.82,171.85 
	252.54,171.11 270.61,162.25 271.57,158.07 279.4,135.38 280.03,131.48 275.83,121.62 275.6,121.19 249.63,107.35 243,104.38 
	221.3,90.16 217.28,84.48 215.69,82.75 211.12,73.65 213.91,73.17 216.34,73.02 206.87,65.41 195.93,57.05 193.55,45.42 
	196.29,29.15 198.98,24.96 213.11,28.22 216.96,26.82 229.73,2.06 230.34,0 245.58,3.88 265.55,12.87 261.86,19.93 262.59,21.51 
	269.5,19.13 279.6,17.5 288.22,15.87 293.96,14.11 296.56,20.81 299.38,32.74 311.62,37.79 317.81,42.79 321.57,50.03 326.96,54.39 
	329.78,60.61 331.14,68.72 335.99,73.03 342.46,67.16 344.3,63.73 350.84,66.07 361.74,91.43 369.38,107.04 370.89,110.43 
	378.69,125.31 403.93,134.51 411.78,138.77 423.39,144.68 423.89,144.26 427.42,138.34 437.55,141.35 458.1,144.03 459.77,142.48 
	470.69,136.89 477.92,133.21 475.54,125.73 480.79,110.11 481.93,109.16 493.9,99.7 500,92.19 502.19,86.4 504.98,81.57 
	516.48,75.87 524.3,72.87 534.06,67.71 552.38,57.81 563.8,47.11 574.24,26.72 588.83,2.9 605.12,0.86 621.1,21.26 636.68,40.54 
	652.95,64.21 670.58,87.06 690.7,125.28 692.18,135.04 700.09,168.52 722.19,198.55 736.24,212.18 753.11,221.53 758.65,235.58 
	764.86,263.79 769.94,266.13 782.72,269.84 798.16,275.1 809.84,277.05 827.29,275.28 845.65,271.5 852.54,268.37 865.46,285.27 
	876.21,289.14 886.24,296.34 900.17,306.86 896.33,298.72 895.38,292.59 900.07,292.19 902.95,296.47 906.45,311.21 901.07,311.58 
	901.4,312.96 906.47,320.96 907.87,326.08 910.13,345.84 909.83,348.31 903.14,341.93 898.42,331.27 875.47,323.75 868.88,321.01 
	861.45,323.25 859.36,325.18 836.42,326.3 826.23,322.24 818.08,328.17 810.99,338.22 785.38,348.52 758.83,366.21 756.56,376.42 
	754.33,382.85 749.94,398.09 754.68,402.41 754.49,409.69 751.27,427.7 750.94,436.24 745.52,456.58 749.08,470.16 735.68,487.19 
	726.64,511.91 726.83,517.9 735.91,528.58 739.52,531.98 750.11,540.84 746.72,548.79 749.77,558.5 748.46,559.12 745.59,556.72 
	742.45,562.19 737.89,553.66 729,549.5 720.02,554.69 718.93,567.02 719.4,583.96 714.28,616.8 712.62,618.61 710.94,610.11 
	708.53,606.16 707.17,600.44 700.99,599.84 697.25,601.93 694.7,604.75 691.99,601.68 691.21,597.93 688.87,594.13 685.09,587.13 
	686.21,580.62 680.37,580.62 675.25,586.19 666.13,601.45 664.22,615.23 667,621.05 662.29,653.3 655.64,663.34 653.16,657.96 
	652.16,660.24 660.85,716 661.92,740.76 654.43,752.06 646.1,755.37 637.99,761.39 630.99,761.39 "/>
</svg>
