<?xml version="1.0" encoding="utf-8"?>
<!-- Generator: Adobe Illustrator 18.1.1, SVG Export Plug-In . SVG Version: 6.00 Build 0)  -->
<svg version="1.1" id="Layer_1" xmlns="http://www.w3.org/2000/svg" xmlns:xlink="http://www.w3.org/1999/xlink" x="0px" y="0px"
	 viewBox="0 0 238.51 205.45" enable-background="new 0 0 238.51 205.45" xml:space="preserve">
<path fill="none" stroke="#000000" stroke-miterlimit="10" d="M0,16.14l17.74-5.55l3.7,0.01l23.86-5.78l11.95-3.72l8.14,7.72
	l8.17,14.42l2.92,14.53l-1.42,7.03l1.39,0.71l2.77-3.67l14.68-2.86l1.52,4.31l6.29,10.1l10.43,8.2l7.14,4.71l20.34-15.96l3.3-0.86
	l11.65-3.56l14.23-0.58l11.29,7.24l2.82,4.92l0.59,7.31L180.8,82.9l-1.32,6.7l3.59,5.78l29.91,15.39l0.71,10.45l0.78,13.41
	l3.87,9.62l4.63,12.67l3.37,6.47l1.18,3.76l10.98,29.97l-2.93,6.66l-7.01,0.29l-10.61-0.95l-8.52-0.85l-10.6,0.97l-4.5-0.42
	l-28.66-12.81l-20.65-4.73l-4.26-2.31l-4.44-1.47l-12.59-2.63l-6.37-2.39l-4.32-4.27l0.77-6.24l1-1.21l-9.46-9.71l-4.42-3.04
	l-12.37-13.15l-0.9-2.1l-14.63-6.22l-10.41-4.25l-2.36-3.77l-3.53-16.54l-9.49-16.22L36.4,81.5l-4.4-5.59l-5.83-17.04L23.31,48.1
	l-7.36-9.28l-8.18-7.01L0,16.14L0,16.14z"/>
</svg>
